<svg width="101" height="40" viewBox="0 0 101 40" fill="none" xmlns="http://www.w3.org/2000/svg">
<path d="M25.4328 40C25.0632 39.8187 24.7333 39.5657 24.4622 39.2559C22.4724 37.3578 20.4773 35.4813 18.5307 33.5509C17.56 32.6072 16.638 31.615 15.6943 30.6444L14.8747 29.7978C14.8262 29.7493 14.7668 29.7062 14.6752 29.6307C14.6752 29.7385 14.6752 29.8032 14.6752 29.8625L14.7237 31.4155L14.7884 33.6048C14.8262 34.9583 14.8639 36.3009 14.9124 37.6652C14.9395 37.9827 14.9881 38.298 15.058 38.6088C15.0798 38.7056 15.1124 38.7997 15.1551 38.8892C15.1968 38.9952 15.2647 39.0888 15.3524 39.1614C15.4401 39.234 15.5447 39.2832 15.6566 39.3044C15.9154 39.353 16.1958 39.3745 16.4438 39.4123C16.5487 39.4195 16.653 39.4321 16.7566 39.45C16.79 39.4554 16.8201 39.4736 16.8402 39.5008C16.8604 39.528 16.8691 39.5621 16.8644 39.5956C16.8648 39.6294 16.8531 39.6621 16.8313 39.6879C16.8095 39.7136 16.7791 39.7306 16.7458 39.7358C16.6552 39.7545 16.5632 39.7653 16.4708 39.7682L14.5997 39.725C14.206 39.725 13.8124 39.725 13.4242 39.725L11.8065 39.7628C11.7276 39.7639 11.6491 39.7511 11.5746 39.725C11.5511 39.7159 11.5302 39.7013 11.5133 39.6826C11.4964 39.6639 11.4842 39.6415 11.4775 39.6172C11.4777 39.5893 11.4841 39.5617 11.4962 39.5365C11.5083 39.5113 11.5259 39.4892 11.5476 39.4716C11.6242 39.4362 11.7063 39.4144 11.7903 39.4069C12.0491 39.4069 12.3295 39.3638 12.5614 39.326C12.6825 39.315 12.797 39.2657 12.8881 39.1852C12.9793 39.1047 13.0424 38.9973 13.0683 38.8785C13.1239 38.6605 13.1635 38.4389 13.1869 38.2152C13.2139 37.9186 13.2192 37.6167 13.2246 37.3201C13.2246 36.2416 13.257 35.2063 13.2732 34.1548L13.3864 27.1017C13.3864 26.7728 13.3864 26.4384 13.3864 26.1095C13.3845 25.9824 13.399 25.8555 13.4295 25.7321C13.505 25.4463 13.6938 25.3708 13.9364 25.5379C14.0694 25.6269 14.1923 25.7299 14.3031 25.8453L15.7213 27.2742L21.2753 32.8175C22.2891 33.8313 23.292 34.8558 24.3004 35.8749C24.3705 35.945 24.4406 36.0205 24.5161 36.0852C24.5681 36.1143 24.6222 36.1396 24.6779 36.1607C24.6779 36.0098 24.6779 35.8965 24.6779 35.7887C24.6419 34.2932 24.606 32.7995 24.57 31.3077C24.5377 30.0944 24.5161 28.8758 24.4783 27.6625C24.4667 27.392 24.4306 27.1231 24.3705 26.859C24.3355 26.6739 24.2405 26.5054 24.1001 26.3797C23.9598 26.2539 23.7819 26.1779 23.594 26.1634C23.3729 26.1311 23.1465 26.1311 22.92 26.1149C22.8553 26.1149 22.7852 26.1149 22.7205 26.1149C22.6558 26.1149 22.5317 26.0394 22.5317 25.9531C22.5317 25.8669 22.5964 25.8183 22.7312 25.8022C22.785 25.7968 22.8392 25.7968 22.893 25.8022H24.6833H26.0583H27.4333C27.4996 25.7993 27.5657 25.8103 27.6274 25.8345C27.6516 25.842 27.6727 25.8571 27.6877 25.8775C27.7026 25.8978 27.7107 25.9225 27.7107 25.9477C27.7107 25.973 27.7026 25.9977 27.6877 26.018C27.6727 26.0384 27.6516 26.0534 27.6274 26.061C27.5447 26.1012 27.455 26.125 27.3632 26.1311C27.2068 26.1311 27.0451 26.1311 26.8887 26.1742C26.7017 26.1978 26.5283 26.2844 26.3969 26.4196C26.2656 26.5548 26.1842 26.7307 26.1661 26.9184C26.125 27.1862 26.0997 27.4563 26.0906 27.7272C26.0906 28.6762 26.0583 29.6307 26.0421 30.5797C26.0098 32.3376 25.972 34.0955 25.9397 35.8534C25.9181 37.0037 25.8983 38.1523 25.8803 39.2991V39.5795C25.8774 39.6628 25.8571 39.7447 25.8209 39.8199C25.7847 39.895 25.7334 39.9619 25.67 40.0162L25.4328 40Z" fill="#BDBDBD"/>
<path d="M100.262 39.6386C100.228 39.6802 100.185 39.7131 100.137 39.7347C100.088 39.7563 100.034 39.7659 99.9813 39.7627H99.9112H97.5008C97.0435 39.7597 96.5915 39.6646 96.1718 39.483C95.7521 39.3014 95.3733 39.037 95.0581 38.7058C94.5865 38.2288 94.1537 37.7149 93.7639 37.169C93.0953 36.2631 92.4428 35.341 91.785 34.4243L91.7041 34.3111C91.6467 34.2094 91.5612 34.1264 91.458 34.0719C91.3548 34.0174 91.238 33.9938 91.1217 34.0037C90.6202 34.0037 90.1134 34.0037 89.6119 33.9713C89.3584 33.9713 89.3207 34.0037 89.3207 34.2571C89.3207 35.3356 89.3207 36.4141 89.3692 37.4602C89.3826 37.8575 89.4205 38.2537 89.4825 38.6465C89.4866 38.8306 89.562 39.0059 89.6927 39.1356C89.8234 39.2653 89.9993 39.3393 90.1835 39.3421C90.4693 39.3852 90.7604 39.3852 91.0516 39.4122C91.1306 39.4151 91.2079 39.4354 91.2781 39.4715C91.3012 39.4815 91.3208 39.4981 91.3346 39.5192C91.3484 39.5403 91.3558 39.5649 91.3558 39.5901C91.3558 39.6153 91.3484 39.6399 91.3346 39.661C91.3208 39.6821 91.3012 39.6987 91.2781 39.7087C91.2005 39.7451 91.1157 39.7635 91.0301 39.7627C90.8413 39.7627 90.658 39.7627 90.4908 39.7627C89.5687 39.7627 88.6467 39.7195 87.7246 39.7141C87.1584 39.7141 86.5976 39.7465 86.0314 39.7627C85.8876 39.7627 85.742 39.7627 85.5946 39.7627C85.5289 39.7607 85.4644 39.7441 85.4059 39.7141C85.3816 39.7038 85.3608 39.6865 85.3463 39.6644C85.3317 39.6424 85.3239 39.6165 85.3239 39.5901C85.3239 39.5637 85.3317 39.5378 85.3463 39.5158C85.3608 39.4937 85.3816 39.4764 85.4059 39.4661C85.4793 39.4343 85.5579 39.416 85.6378 39.4122L86.15 39.3744C86.3005 39.3705 86.445 39.3146 86.5589 39.2164C86.6729 39.1181 86.7495 38.9834 86.7755 38.8352C86.8458 38.5249 86.8891 38.2092 86.905 37.8915C86.9373 37.0827 86.9535 36.2738 86.9535 35.465C86.9535 32.9486 86.9535 30.4178 86.9535 27.8727C86.9535 27.5923 86.9535 27.3065 86.9157 27.0207C86.9103 26.8496 86.8511 26.6846 86.7466 26.5491C86.6421 26.4135 86.4975 26.3144 86.3334 26.2658C86.0516 26.1651 85.7536 26.1176 85.4544 26.1256C85.3566 26.1228 85.2592 26.112 85.1632 26.0932C85.1265 26.0891 85.0928 26.0713 85.0687 26.0433C85.0447 26.0152 85.0322 25.9791 85.0338 25.9422C85.0338 25.856 85.1039 25.829 85.1686 25.8128C85.2475 25.8046 85.327 25.8046 85.4059 25.8128C85.9829 25.8128 86.5598 25.8128 87.1368 25.8128H90.2643C90.9114 25.8128 91.5639 25.8128 92.211 25.856C92.9522 25.8859 93.6777 26.0792 94.3355 26.4221C94.7533 26.6472 95.1127 26.9667 95.3851 27.3552C95.6576 27.7437 95.8355 28.1905 95.9047 28.6599C95.9725 29.0969 95.9531 29.543 95.8476 29.9724C95.7421 30.4019 95.5526 30.8062 95.29 31.162C94.7917 31.8613 94.1961 32.4859 93.5213 33.0169L93.2948 33.2164C93.3326 33.2703 93.3595 33.3189 93.3919 33.3566C94.4272 34.5968 95.4517 35.8425 96.4924 37.0719C96.9556 37.6375 97.4681 38.1608 98.0239 38.6357C98.4805 39.0387 99.0409 39.3058 99.6415 39.4068C99.7276 39.4148 99.8143 39.4148 99.9004 39.4068C99.9661 39.3989 100.033 39.4088 100.093 39.4354C100.154 39.4619 100.207 39.5042 100.245 39.5578L100.262 39.6386ZM89.2937 29.8355V32.4669C89.2937 32.8174 89.3423 32.8821 89.6766 32.9576C90.288 33.0849 90.9149 33.1212 91.5369 33.0654C91.8381 33.0425 92.1255 32.9298 92.3619 32.7419C92.8136 32.4095 93.1524 31.9465 93.3326 31.4154C93.6589 30.4852 93.6589 29.4715 93.3326 28.5413C93.1263 27.9157 92.6883 27.3928 92.1085 27.08C91.7273 26.8592 91.2978 26.7351 90.8575 26.7187C90.4261 26.7187 89.9947 26.7187 89.5687 26.7619C89.3854 26.7619 89.3153 26.8643 89.3045 27.0476V29.8355H89.2937Z" fill="#BDBDBD"/>
<path d="M33.9576 39.9999C33.7635 39.9675 33.5693 39.9352 33.3698 39.9136C32.915 39.857 32.4681 39.7484 32.0379 39.5901C31.984 39.5901 31.9301 39.5416 31.8762 39.5254C31.769 39.4943 31.6762 39.4265 31.614 39.3338C31.5519 39.2411 31.5244 39.1294 31.5365 39.0185C31.5365 38.7057 31.5365 38.393 31.5365 38.0856C31.5634 37.5087 31.6012 36.9317 31.6389 36.3547C31.6418 36.2942 31.6527 36.2344 31.6713 36.1768C31.709 36.0473 31.7845 35.9826 31.8708 35.9934C31.957 36.0042 32.0164 36.0797 32.0271 36.2199C32.029 36.3591 32.0416 36.4979 32.0649 36.6351C32.1286 36.9313 32.2115 37.2231 32.3129 37.5087C32.5214 38.0216 32.9191 38.4348 33.4238 38.6626C33.8653 38.895 34.3486 39.0376 34.8457 39.082C35.3427 39.1264 35.8436 39.0718 36.3194 38.9214C36.7421 38.8158 37.123 38.5846 37.4117 38.2583C37.7005 37.932 37.8837 37.5259 37.9371 37.0935C38.0146 36.7035 37.9903 36.3002 37.8666 35.9224C37.7429 35.5446 37.5239 35.2051 37.2307 34.9365C36.8887 34.6207 36.5125 34.344 36.1091 34.1115C35.5699 33.7664 34.9659 33.4375 34.4052 33.087C33.8073 32.724 33.2735 32.2649 32.8252 31.7281C32.424 31.2581 32.1475 30.6946 32.0212 30.0896C31.895 29.4846 31.9229 28.8576 32.1026 28.2663C32.2354 27.836 32.4532 27.4367 32.7431 27.0922C33.0331 26.7476 33.3892 26.4648 33.7904 26.2603C34.5534 25.8292 35.4064 25.5818 36.2817 25.5378C37.3163 25.477 38.3544 25.5605 39.3661 25.7858H39.4092C39.7489 25.8721 39.7597 25.8937 39.7489 26.2496C39.7489 26.9128 39.7166 27.5761 39.695 28.2393C39.703 28.3434 39.703 28.448 39.695 28.5521C39.6626 28.7462 39.5925 28.8325 39.4847 28.8271C39.3768 28.8217 39.3337 28.7246 39.3175 28.5251C39.3228 28.4389 39.3228 28.3525 39.3175 28.2663C39.2475 27.9261 39.0988 27.6071 38.8835 27.3346C38.6681 27.0622 38.3921 26.8439 38.0773 26.6971C37.5673 26.4767 37.0121 26.3813 36.4577 26.4188C35.9034 26.4564 35.3661 26.6257 34.8905 26.9128C34.6666 27.0511 34.4744 27.235 34.3264 27.4526C34.1785 27.6701 34.0781 27.9165 34.0317 28.1755C33.9854 28.4345 33.9943 28.7004 34.0577 28.9557C34.1211 29.2111 34.2377 29.4502 34.3998 29.6575C34.6555 29.9637 34.9597 30.226 35.3003 30.434C35.7694 30.7359 36.2817 31.0056 36.74 31.2752C37.3785 31.6191 37.9802 32.0274 38.5356 32.4938C39.0895 32.9536 39.5273 33.5373 39.8136 34.1978C40.0581 34.8102 40.156 35.4713 40.0994 36.1282C40.0668 36.7243 39.8811 37.3019 39.5602 37.8052C39.2446 38.3299 38.8223 38.7824 38.3207 39.1335C37.8191 39.4847 37.2493 39.7265 36.6483 39.8435C36.4488 39.8813 36.2547 39.9028 36.0552 39.9298C35.9959 39.9298 35.942 39.9622 35.8826 39.9783L33.9576 39.9999Z" fill="#BDBDBD"/>
<path d="M9.17503 7.08L9.42847 7.18245C10.4296 7.55079 11.3269 8.15574 12.0437 8.94573C12.4324 9.36692 12.729 9.86448 12.9147 10.4067C13.1004 10.9489 13.171 11.5238 13.1222 12.0948C13.0797 12.8199 12.858 13.5232 12.4768 14.1415C12.0957 14.7598 11.567 15.2738 10.9383 15.6376C10.2213 16.0605 9.4245 16.3304 8.59805 16.4302C7.91869 16.5192 7.23179 16.5354 6.54898 16.4788C4.9531 16.3745 3.35256 16.3619 1.75524 16.441C1.60256 16.4491 1.44957 16.4491 1.29689 16.441C1.25233 16.4492 1.20665 16.4492 1.16209 16.441C1.09199 16.4087 1.03267 16.3709 1.03267 16.2792C1.03267 16.1876 1.10277 16.1552 1.17826 16.1444C1.25376 16.1337 1.3616 16.1444 1.45327 16.1175L2.08417 16.042C2.21039 16.0332 2.33056 15.9846 2.42745 15.9032C2.52433 15.8218 2.59293 15.7118 2.6234 15.589C2.70559 15.3437 2.76338 15.0908 2.79595 14.8341C2.88323 14.0753 2.91926 13.3114 2.9038 12.5478C2.9038 9.31241 2.9038 6.08602 2.9038 2.86862C2.9038 2.38871 2.86066 1.91419 2.8337 1.43967C2.81592 1.31579 2.78333 1.19449 2.73663 1.07838C2.70445 0.959605 2.6461 0.849534 2.56585 0.756231C2.48561 0.662929 2.38552 0.588758 2.2729 0.539153C2.05398 0.446313 1.82024 0.393355 1.58269 0.382776L0.984141 0.355815C0.924144 0.352121 0.864594 0.343099 0.806195 0.328854C0.773347 0.323577 0.74361 0.306339 0.722705 0.280457C0.701801 0.254575 0.691205 0.221878 0.692957 0.188654C0.689799 0.15454 0.699747 0.120504 0.72078 0.0934609C0.741813 0.0664181 0.772354 0.0483979 0.806195 0.0430623C0.901912 0.0207379 0.999301 0.00631001 1.09738 -7.60606e-05C1.45866 -7.60606e-05 1.81455 -7.60606e-05 2.17584 -7.60606e-05C3.5994 0.0862006 5.00679 0.0646314 6.45192 -7.60606e-05C7.2361 -0.0334074 8.02092 0.0483453 8.78139 0.242577C9.24744 0.354662 9.6907 0.546193 10.0917 0.808767C10.5008 1.07464 10.8354 1.44048 11.0637 1.87169C11.2921 2.30289 11.4067 2.78521 11.3967 3.27304C11.401 3.80902 11.2962 4.34026 11.0885 4.83439C10.8808 5.32852 10.5747 5.77518 10.1888 6.14713C9.93534 6.41136 9.64955 6.64862 9.39072 6.89127L9.17503 7.08ZM5.46513 11.1727C5.46513 11.9816 5.46513 12.7904 5.46513 13.5993C5.47331 13.9044 5.50032 14.2088 5.54602 14.5106C5.56461 14.6769 5.62814 14.8351 5.72978 14.9681C5.83143 15.1011 5.96736 15.2039 6.12299 15.2655L6.32251 15.3518C6.94395 15.5744 7.61052 15.641 8.26373 15.5459C8.83411 15.4887 9.36644 15.2335 9.76832 14.8247C10.1702 14.416 10.4163 13.8794 10.4638 13.3081C10.5368 12.7279 10.515 12.1396 10.3991 11.5664C10.1951 10.4459 9.61263 9.4294 8.74904 8.6869C8.30281 8.27291 7.73606 8.01221 7.13135 7.94277C6.68918 7.90502 6.24701 7.88884 5.79946 7.87267C5.50827 7.87267 5.4867 7.87267 5.4867 8.18542V11.1727H5.46513ZM5.46513 3.95786V6.54616C5.45974 6.60536 5.45974 6.66492 5.46513 6.72411C5.46337 6.77785 5.48175 6.83032 5.51666 6.87122C5.55158 6.91212 5.60051 6.9385 5.65386 6.94519H5.81024C6.30667 6.9991 6.80747 6.9991 7.3039 6.94519C7.71572 6.89821 8.09769 6.70723 8.38236 6.40596C8.62683 6.15171 8.81111 5.84581 8.92159 5.51084C9.25936 4.48361 9.18195 3.36501 8.7059 2.3941C8.50225 1.94443 8.18662 1.55453 7.78921 1.26172C7.23015 0.877531 6.54475 0.723075 5.87495 0.830336C5.49749 0.86269 5.44356 0.93279 5.44356 1.32103L5.46513 3.95786Z" fill="#BDBDBD"/>
<path d="M57.5275 25.8182C58.9079 25.7858 60.2884 25.7373 61.6688 25.8182C62.7904 25.864 63.8973 26.0898 64.9473 26.4868C65.9092 26.8421 66.7625 27.4407 67.4241 28.2242C68.0856 29.0076 68.5328 29.9492 68.7219 30.957C69.1253 32.7251 68.8622 34.5798 67.9832 36.166C67.3155 37.4104 66.256 38.3998 64.9689 38.9808C63.9936 39.4217 62.9542 39.7038 61.8899 39.8166C60.8137 39.916 59.7307 39.916 58.6545 39.8166C57.486 39.7061 56.3122 39.6628 55.1387 39.6872C54.6912 39.6872 54.249 39.7249 53.8014 39.7357C53.7099 39.7437 53.6179 39.7437 53.5264 39.7357C53.4509 39.7357 53.3862 39.6764 53.3862 39.5901C53.3832 39.5523 53.395 39.5148 53.4192 39.4856C53.4434 39.4564 53.478 39.4378 53.5156 39.4337C53.5802 39.4281 53.6452 39.4281 53.7098 39.4337C53.8823 39.4337 54.0549 39.4337 54.249 39.3906C54.396 39.3811 54.5357 39.323 54.6461 39.2254C54.7564 39.1277 54.8311 38.9961 54.8583 38.8513C54.9458 38.5241 54.9911 38.1871 54.9931 37.8484C54.9931 37.0719 55.0363 36.2954 55.0363 35.5189C55.0363 32.9306 55.0363 30.3369 55.0363 27.7486C55.0363 27.506 55.0363 27.2579 54.9985 27.0153C54.993 26.8444 54.9345 26.6794 54.8311 26.5432C54.7278 26.407 54.5846 26.3063 54.4215 26.255C54.1378 26.1546 53.8381 26.1071 53.5372 26.1148C53.4384 26.1201 53.3394 26.1201 53.2406 26.1148C53.1544 26.1148 53.0843 26.0554 53.0896 25.9584C53.095 25.8613 53.1759 25.829 53.2514 25.8182C53.3717 25.8101 53.4924 25.8101 53.6127 25.8182C54.4215 25.8182 55.2304 25.8505 56.0392 25.8559L57.5275 25.8182ZM57.5599 32.0463C57.5599 33.5669 57.5599 35.0875 57.6084 36.6082C57.6084 36.9856 57.6623 37.3631 57.6839 37.7405C57.695 37.9338 57.7607 38.12 57.8733 38.2774C57.986 38.4349 58.1409 38.5572 58.3202 38.6303C58.646 38.7819 58.9935 38.882 59.3501 38.9268C60.3409 39.0624 61.3475 39.0277 62.3266 38.8244C63.2164 38.6387 64.0387 38.2136 64.7046 37.5949C65.313 37.0106 65.7367 36.2607 65.9233 35.438C66.0911 34.7551 66.1762 34.0545 66.1767 33.3512C66.2096 32.4132 66.0688 31.4772 65.7615 30.5904C65.4915 29.8013 65.0324 29.0904 64.4242 28.5197C63.6942 27.8579 62.8242 27.3695 61.8791 27.0908C60.7412 26.7646 59.554 26.6458 58.3741 26.7403C58.2153 26.7465 58.0577 26.7718 57.905 26.8158C57.8547 26.8211 57.8061 26.8364 57.7619 26.8609C57.7178 26.8853 57.6789 26.9184 57.6478 26.9581C57.6166 26.9978 57.5937 27.0434 57.5804 27.0921C57.5672 27.1408 57.5639 27.1917 57.5706 27.2418C57.5706 27.479 57.5706 27.7217 57.5706 27.9589C57.5545 29.3124 57.5599 30.682 57.5599 32.0463Z" fill="#BDBDBD"/>
<path d="M51.9682 6.38448V6.73498C52.0185 8.37783 52.0689 10.0225 52.1192 11.6689C52.1192 12.564 52.1623 13.4646 52.2055 14.3651C52.2347 14.6951 52.2851 15.0229 52.3565 15.3465C52.3786 15.4473 52.413 15.5451 52.4589 15.6376C52.5018 15.7212 52.562 15.7947 52.6354 15.8533C52.7088 15.9118 52.7939 15.9541 52.8849 15.9774C53.166 16.0545 53.4561 16.0944 53.7477 16.096C53.8405 16.098 53.9328 16.1106 54.0227 16.1337C54.0561 16.1391 54.0862 16.1573 54.1063 16.1845C54.1265 16.2117 54.1352 16.2458 54.1305 16.2793C54.1308 16.3125 54.1188 16.3445 54.0969 16.3694C54.075 16.3942 54.0448 16.4102 54.0119 16.4141C53.9291 16.4355 53.844 16.4464 53.7585 16.4465L51.8226 16.4034C51.4613 16.4034 51.0947 16.4034 50.7442 16.4034L49.1265 16.4411C49.0535 16.4468 48.9801 16.4377 48.9108 16.4141C48.8578 16.3908 48.8155 16.3485 48.7921 16.2955C48.7872 16.2796 48.7856 16.2628 48.7873 16.2462C48.789 16.2297 48.794 16.2136 48.8021 16.199C48.8101 16.1844 48.821 16.1716 48.8341 16.1613C48.8473 16.151 48.8623 16.1435 48.8784 16.1391C48.9605 16.1121 49.0456 16.0958 49.1319 16.0906C49.3799 16.0582 49.6333 16.0475 49.8814 16.0097C50.0023 15.9973 50.1161 15.9467 50.2062 15.8653C50.2964 15.7838 50.3583 15.6758 50.3829 15.5568C50.4437 15.3345 50.4834 15.107 50.5015 14.8773C50.5015 14.5268 50.5393 14.1709 50.5446 13.7989C50.5446 12.4832 50.577 11.1674 50.5986 9.85712C50.6309 7.76491 50.6669 5.6727 50.7064 3.58049C50.7064 3.30009 50.7064 3.04126 50.7064 2.74469C50.7081 2.61885 50.7262 2.49376 50.7603 2.37262C50.8358 2.1084 51.0138 2.0383 51.2456 2.18928C51.3821 2.27993 51.5087 2.38477 51.6231 2.50203C52.1623 3.04126 52.6476 3.54814 53.1653 4.06041L59.1615 10.0405C60.0189 10.8924 60.8601 11.7552 61.7121 12.618C61.758 12.6657 61.8066 12.7107 61.8577 12.7528C61.906 12.7746 61.9567 12.7908 62.0087 12.8013V12.4993L61.9008 8.08845C61.8738 6.85361 61.8523 5.61878 61.8091 4.38394C61.7983 4.09168 61.7604 3.80105 61.6959 3.51578C61.6625 3.35496 61.5822 3.20764 61.4651 3.09246C61.348 2.97728 61.1994 2.89942 61.038 2.86871C60.772 2.81397 60.5008 2.78865 60.2292 2.79322C60.1431 2.80117 60.0565 2.80117 59.9704 2.79322C59.954 2.79062 59.9383 2.78476 59.9242 2.77598C59.9101 2.76719 59.8979 2.75567 59.8883 2.7421C59.8788 2.72852 59.8721 2.71316 59.8685 2.69693C59.865 2.68071 59.8648 2.66394 59.8679 2.64763C59.8871 2.59424 59.9256 2.54998 59.9758 2.5236C60.0505 2.49927 60.129 2.48831 60.2076 2.49125H62.0033H63.3352H64.7479C64.8065 2.47786 64.8673 2.47786 64.9259 2.49125C64.9517 2.50098 64.9752 2.51612 64.9947 2.53565C65.0143 2.55518 65.0294 2.57864 65.0391 2.60449C65.0456 2.63732 65.0391 2.67139 65.021 2.69954C65.0029 2.72769 64.9746 2.74774 64.9421 2.75547C64.8585 2.77464 64.7739 2.78904 64.6886 2.79861C64.5322 2.79861 64.3813 2.79861 64.2303 2.84175C64.0469 2.86507 63.8769 2.94966 63.7477 3.08181C63.6184 3.21395 63.5377 3.38589 63.5185 3.56971C63.4771 3.81946 63.4519 4.07162 63.443 4.32463C63.4053 5.99624 63.3837 7.66785 63.3513 9.33946L63.2435 15.0283C63.2435 15.368 63.2435 15.7077 63.2435 16.0421C63.2453 16.1827 63.2253 16.3228 63.1842 16.4573C63.1779 16.4968 63.163 16.5345 63.1404 16.5675C63.1178 16.6005 63.0881 16.6281 63.0535 16.6483C63.0189 16.6684 62.9803 16.6806 62.9404 16.6839C62.9005 16.6873 62.8604 16.6817 62.8229 16.6676C62.6067 16.6225 62.4081 16.5157 62.2513 16.3602C61.7121 15.8641 61.1729 15.3788 60.6822 14.8827C59.0645 13.3513 57.4737 11.8253 55.8884 10.2723C54.8099 9.22622 53.8016 8.11541 52.7609 7.03695L52.2216 6.47076C52.1734 6.42148 52.1211 6.37638 52.0653 6.33595L51.9682 6.38448Z" fill="#BDBDBD"/>
<path d="M26.349 8.03993C26.349 6.61637 26.349 5.48399 26.3113 4.357C26.3067 4.07893 26.2833 3.80149 26.2412 3.52659C26.2224 3.40693 26.1728 3.29424 26.0971 3.19966C26.0215 3.10509 25.9224 3.03191 25.8098 2.98736C25.5252 2.85965 25.2157 2.79702 24.9039 2.80402C24.8106 2.81214 24.7168 2.81214 24.6235 2.80402C24.6034 2.80408 24.5836 2.79998 24.5652 2.792C24.5468 2.78402 24.5302 2.77232 24.5165 2.75764C24.5029 2.74296 24.4924 2.72561 24.4857 2.70668C24.4791 2.68775 24.4764 2.66765 24.4779 2.64764C24.4779 2.54519 24.5642 2.52362 24.6397 2.50745C24.6935 2.50208 24.7477 2.50208 24.8014 2.50745C25.3946 2.50745 25.9931 2.50745 26.5917 2.50745C27.2765 2.50745 27.9613 2.50745 28.6408 2.50745H29.4011C29.4603 2.50209 29.5198 2.50209 29.579 2.50745C29.6545 2.50745 29.7408 2.54519 29.7462 2.64764C29.7516 2.7501 29.6815 2.78784 29.5952 2.80402C29.5089 2.8202 29.4604 2.80402 29.3957 2.80402C29.1962 2.80402 28.9913 2.84716 28.7863 2.88491C28.6344 2.89808 28.4918 2.96409 28.3834 3.07147C28.2751 3.17885 28.2078 3.32081 28.1932 3.47267C28.1932 3.77463 28.1554 4.03886 28.1393 4.31386C28.1231 4.58887 28.1393 4.91241 28.1393 5.20898C28.1393 6.82667 28.1393 8.44436 28.1393 10.0297C28.1485 10.8473 28.0763 11.6637 27.9236 12.467C27.7787 13.2595 27.4581 14.0094 26.9853 14.6617C26.4538 15.342 25.7554 15.8733 24.9578 16.2039C24.2858 16.495 23.5652 16.6578 22.8333 16.6838C22.1913 16.7215 21.5474 16.7053 20.9082 16.6352C19.9839 16.5628 19.0914 16.2647 18.3091 15.7671C17.5233 15.2508 16.9255 14.4942 16.6052 13.6102C16.3823 13.0274 16.246 12.4152 16.2007 11.793C16.163 11.2537 16.136 10.7469 16.1306 10.2184C16.1306 8.40661 16.1306 6.5948 16.1306 4.78299C16.1306 4.41632 16.1306 4.05503 16.0821 3.70453C16.0772 3.54461 16.0226 3.39018 15.926 3.26264C15.8294 3.13511 15.6955 3.04079 15.5429 2.99275C15.2493 2.88601 14.9385 2.83481 14.6262 2.84177C14.5283 2.83716 14.4309 2.82453 14.335 2.80402C14.3179 2.80141 14.3015 2.79541 14.2868 2.78635C14.272 2.7773 14.2593 2.76538 14.2492 2.7513C14.2391 2.73723 14.232 2.72128 14.2282 2.7044C14.2244 2.68752 14.2241 2.67006 14.2272 2.65304C14.2517 2.60269 14.2913 2.56123 14.3404 2.53441C14.4191 2.52355 14.499 2.52355 14.5777 2.53441H16.4488H18.7189H20.0347C20.106 2.53417 20.177 2.54509 20.245 2.56676C20.2688 2.57683 20.29 2.5923 20.3068 2.61195C20.3237 2.6316 20.3357 2.6549 20.342 2.68C20.3391 2.70772 20.3304 2.73452 20.3164 2.75867C20.3025 2.78282 20.2837 2.80378 20.2611 2.8202C20.1866 2.84767 20.1085 2.86402 20.0293 2.86873C19.8567 2.86873 19.6842 2.86873 19.49 2.92804C19.2974 2.94181 19.1174 3.02886 18.987 3.17128C18.8566 3.31371 18.7858 3.50068 18.789 3.69375C18.7567 4.05503 18.7297 4.42171 18.7243 4.77221C18.7243 5.74821 18.7243 6.72422 18.7243 7.70022V10.5905C18.7178 11.3269 18.7846 12.062 18.9239 12.7851C19.0422 13.4437 19.3387 14.0573 19.7812 14.5592C20.3432 15.1716 21.111 15.5555 21.9381 15.6377C22.5309 15.7181 23.1336 15.6815 23.7122 15.5298C24.3288 15.3748 24.8868 15.0433 25.3178 14.5759C25.7488 14.1085 26.0341 13.5255 26.1387 12.8984C26.2384 12.4302 26.2926 11.9534 26.3005 11.4748C26.3329 10.2454 26.3436 8.98358 26.349 8.03993Z" fill="#BDBDBD"/>
<path d="M71.4184 16.4196C70.464 16.4196 69.5042 16.4196 68.5497 16.4196C68.1129 16.4196 67.6762 16.4196 67.2394 16.452C67.1462 16.4627 67.0522 16.4627 66.959 16.452C66.9227 16.4481 66.8891 16.4312 66.8643 16.4045C66.8395 16.3777 66.8253 16.3429 66.8242 16.3064C66.821 16.2694 66.8321 16.2327 66.8552 16.2036C66.8782 16.1746 66.9115 16.1554 66.9482 16.15L67.1639 16.1177C67.3365 16.1177 67.509 16.1177 67.7031 16.0745C67.8409 16.0656 67.972 16.0117 68.0762 15.9211C68.1804 15.8305 68.2521 15.7083 68.2801 15.5731C68.342 15.3086 68.3853 15.0401 68.4095 14.7696C68.4419 14.3328 68.4527 13.8961 68.4581 13.4593C68.4581 12.1651 68.4581 10.871 68.4581 9.57144C68.4581 8.49298 68.4581 7.37138 68.4581 6.26596C68.4581 5.51643 68.4581 4.76691 68.4581 4.01738C68.4498 3.83566 68.4246 3.65513 68.3826 3.47815C68.3606 3.38374 68.3177 3.29548 68.257 3.21988C68.1963 3.14428 68.1195 3.08328 68.0321 3.04137C67.7858 2.90934 67.5131 2.83381 67.234 2.82029C67.0992 2.82029 66.9644 2.82029 66.835 2.82029C66.7556 2.81567 66.6783 2.79358 66.6085 2.75558C66.5856 2.74826 66.5657 2.73388 66.5516 2.71449C66.5374 2.69511 66.5298 2.67173 66.5298 2.64774C66.5298 2.62374 66.5374 2.60036 66.5516 2.58098C66.5657 2.5616 66.5856 2.54721 66.6085 2.53989C66.6946 2.50729 66.786 2.49084 66.8781 2.49136H68.6306H71.2405H74.5244C74.9302 2.49786 75.3355 2.45806 75.7323 2.37273C75.8239 2.37273 75.9102 2.31881 76.0019 2.30263C76.0935 2.28645 76.1529 2.30263 76.1582 2.42126C76.1663 2.48572 76.1663 2.55092 76.1582 2.61538L76.0126 3.89875C75.9803 4.20072 75.9641 4.49729 75.9318 4.79387C75.9174 4.88467 75.892 4.97339 75.8563 5.05809C75.8516 5.07432 75.8434 5.08936 75.8324 5.1022C75.8214 5.11504 75.8078 5.12538 75.7925 5.13253C75.7772 5.13967 75.7605 5.14347 75.7436 5.14365C75.7267 5.14383 75.71 5.1404 75.6945 5.13358C75.6702 5.11998 75.649 5.10144 75.6323 5.07915C75.6156 5.05686 75.6037 5.03132 75.5974 5.00417C75.5974 4.86936 75.5974 4.72377 75.5543 4.58896C75.5228 4.34295 75.4075 4.11531 75.2277 3.9444C75.048 3.7735 74.8148 3.66977 74.5675 3.6507C74.102 3.57708 73.6314 3.54102 73.1601 3.54286C72.54 3.51589 71.9145 3.5105 71.289 3.49972H71.1326C71.0916 3.50106 71.0526 3.51797 71.0235 3.54701C70.9945 3.57605 70.9776 3.61505 70.9763 3.65609C70.9735 3.70818 70.9735 3.76038 70.9763 3.81247V8.17483C70.9763 8.22876 70.9763 8.28268 70.9763 8.3366C70.9762 8.35666 70.9803 8.37652 70.9883 8.39493C70.9963 8.41333 71.0079 8.42989 71.0226 8.44356C71.0373 8.45723 71.0547 8.46772 71.0736 8.47437C71.0925 8.48101 71.1126 8.48368 71.1326 8.48219H71.2351L74.2979 8.44445C74.5113 8.43442 74.7238 8.41101 74.9342 8.37435C75.1408 8.3532 75.3325 8.25732 75.4734 8.10473L75.5597 8.02385C75.619 7.96993 75.6729 7.88904 75.7592 7.93218C75.8455 7.97532 75.8617 8.08316 75.8509 8.18022C75.8024 8.62778 75.743 9.07535 75.6999 9.5229C75.6568 9.97046 75.646 10.2778 75.619 10.6553C75.613 10.7534 75.5985 10.8508 75.5759 10.9465C75.5739 10.9669 75.5678 10.9866 75.558 11.0046C75.5481 11.0225 75.5347 11.0383 75.5185 11.0509C75.5024 11.0635 75.4839 11.0727 75.4641 11.0779C75.4442 11.0832 75.4236 11.0843 75.4033 11.0813C75.3666 11.0759 75.3333 11.0567 75.3103 11.0277C75.2873 10.9986 75.2762 10.9619 75.2793 10.9249C75.2793 10.7847 75.2793 10.6445 75.2469 10.5097C75.2513 10.2939 75.178 10.0838 75.0404 9.91753C74.9029 9.75127 74.7102 9.63993 74.4974 9.60379C74.2239 9.54761 73.9461 9.51513 73.667 9.50673C72.8636 9.50673 72.0493 9.46898 71.2567 9.45281C71.0248 9.45281 70.9978 9.45281 70.9924 9.71703C70.9924 10.9752 70.9924 12.2334 70.9924 13.4916C70.9923 13.784 71.014 14.076 71.0571 14.3652C71.0827 14.5836 71.1744 14.7889 71.3199 14.9537C71.4654 15.1185 71.6578 15.2349 71.8714 15.2873C72.2193 15.4014 72.5836 15.4579 72.9498 15.4544C73.5214 15.4544 74.093 15.4544 74.6592 15.4167C74.9092 15.3924 75.1555 15.338 75.3925 15.2549C75.5358 15.209 75.6683 15.1347 75.7822 15.0365C75.8962 14.9383 75.9892 14.8182 76.0558 14.6833C76.1678 14.4489 76.2476 14.2004 76.2931 13.9446C76.3074 13.8538 76.3328 13.7651 76.3685 13.6804C76.3833 13.657 76.4031 13.6371 76.4264 13.6222C76.4496 13.6073 76.4759 13.5977 76.5034 13.5941C76.5301 13.6013 76.5551 13.6142 76.5765 13.6319C76.5979 13.6495 76.6152 13.6716 76.6274 13.6965C76.6557 13.7779 76.6685 13.8639 76.6651 13.95C76.6651 14.3167 76.6166 14.6779 76.5735 15.0284C76.5303 15.3789 76.4818 15.6216 76.4333 15.9128C76.4221 15.971 76.4076 16.0286 76.3901 16.0853C76.3706 16.1986 76.3107 16.3009 76.2214 16.3733C76.1321 16.4457 76.0196 16.4832 75.9048 16.479C75.4033 16.479 74.8964 16.479 74.395 16.479L71.467 16.4196H71.4184Z" fill="#BDBDBD"/>
<path d="M76.8378 39.7196H74.0284C73.6348 39.7196 73.2465 39.7196 72.8529 39.7574C72.6949 39.7682 72.5363 39.7682 72.3784 39.7574C72.2597 39.7574 72.2058 39.6819 72.2112 39.5956C72.2166 39.5093 72.2867 39.4608 72.3676 39.4392C72.4322 39.4339 72.4971 39.4339 72.5617 39.4392C72.7235 39.4392 72.8798 39.4392 73.0362 39.3961C73.1848 39.3897 73.3267 39.3328 73.4385 39.2347C73.5503 39.1367 73.6253 39.0033 73.6509 38.8569C73.71 38.6253 73.7479 38.3889 73.7642 38.1505C73.7965 37.2014 73.8343 36.2524 73.8343 35.3033C73.8343 33.0008 73.8343 30.6929 73.8343 28.3904C73.8343 28.0022 73.8343 27.6085 73.8073 27.2149C73.8021 27.0968 73.7859 26.9795 73.7588 26.8644C73.7395 26.7494 73.6933 26.6406 73.624 26.5469C73.5546 26.4532 73.4641 26.3772 73.3597 26.3252C73.1158 26.2 72.8466 26.1317 72.5725 26.1257H72.1357C71.9847 26.1257 71.8984 26.0448 71.8984 25.9585C71.8984 25.8722 71.9847 25.8075 72.1411 25.8021H73.2573C75.576 25.8021 77.8893 25.8021 80.208 25.8345C80.5735 25.8349 80.9371 25.7803 81.2864 25.6727C81.4751 25.6134 81.5506 25.6727 81.5075 25.8776C81.4007 26.5656 81.3287 27.2585 81.2918 27.9537C81.2804 28.0717 81.2605 28.1889 81.2325 28.3042C81.2145 28.3615 81.1852 28.4147 81.1462 28.4605C81.1324 28.4774 81.114 28.49 81.0932 28.4967C81.0724 28.5034 81.0501 28.5039 81.029 28.4982C81.0079 28.4925 80.9889 28.4808 80.9743 28.4646C80.9597 28.4483 80.9501 28.4282 80.9467 28.4066C80.9467 28.3419 80.9467 28.2718 80.9467 28.2071C80.9196 28.0044 80.8764 27.8043 80.8173 27.6085C80.7694 27.4583 80.6812 27.3241 80.5624 27.2205C80.4435 27.1169 80.2986 27.0478 80.1432 27.0208C79.8936 26.9599 79.6393 26.9202 79.3829 26.9022C78.5094 26.8644 77.6412 26.8482 76.7731 26.8213H76.5736C76.4441 26.8213 76.3956 26.8752 76.3848 27.0046C76.382 27.0567 76.382 27.1089 76.3848 27.161V31.4748C76.3848 31.8145 76.3848 31.8253 76.7353 31.8199L79.6418 31.7876C79.879 31.7876 80.1163 31.739 80.3535 31.7121C80.5606 31.6924 80.7528 31.5963 80.8928 31.4425L81.006 31.3346C81.0599 31.2861 81.1192 31.2322 81.1786 31.2807C81.2037 31.2999 81.2244 31.3243 81.2393 31.3522C81.2541 31.3801 81.2629 31.4109 81.2648 31.4425C81.2614 31.6086 81.247 31.7743 81.2217 31.9386C81.13 32.6503 81.0491 33.3621 81.0276 34.0955C81.0255 34.1688 81.0128 34.2415 80.9898 34.3112C80.9873 34.3309 80.9807 34.3499 80.9704 34.367C80.9602 34.3841 80.9466 34.3989 80.9304 34.4106C80.9143 34.4222 80.8959 34.4304 80.8764 34.4346C80.8569 34.4388 80.8368 34.439 80.8173 34.4352C80.7801 34.4286 80.7468 34.4083 80.7238 34.3784C80.7009 34.3484 80.69 34.311 80.6933 34.2734C80.6933 34.1224 80.6663 33.9714 80.6555 33.8205C80.6623 33.6147 80.5963 33.4132 80.469 33.2514C80.3418 33.0896 80.1615 32.9779 79.9599 32.9361C79.6745 32.8734 79.3838 32.8373 79.0917 32.8283C78.2829 32.7959 77.4741 32.7851 76.6652 32.769C76.4387 32.769 76.401 32.769 76.401 33.017C76.401 34.4136 76.401 35.8048 76.401 37.2014C76.4044 37.3829 76.426 37.5635 76.4657 37.7407C76.5028 37.9344 76.5922 38.1142 76.7244 38.2606C76.8565 38.4071 77.0263 38.5144 77.2152 38.5711C77.5746 38.6934 77.9518 38.7554 78.3314 38.7544C78.8707 38.7544 79.4099 38.7544 79.9815 38.7167C80.1936 38.703 80.4035 38.665 80.607 38.6034C80.8164 38.5488 81.0082 38.4412 81.164 38.2911C81.3198 38.1409 81.4344 37.9533 81.4967 37.746C81.5506 37.5951 81.583 37.4387 81.6207 37.2877C81.6207 37.2176 81.6207 37.1421 81.6639 37.072C81.707 36.921 81.7609 36.8671 81.8526 36.8725C81.9443 36.8779 81.9874 36.9534 81.9982 37.1044C82.0036 37.1978 82.0036 37.2914 81.9982 37.3848C81.965 38.0063 81.8857 38.6245 81.7609 39.2343C81.764 39.2738 81.764 39.3135 81.7609 39.353C81.6639 39.6657 81.5668 39.752 81.2217 39.7789C81.0869 39.7789 80.9521 39.7789 80.8227 39.7789L76.8378 39.725V39.7196Z" fill="#BDBDBD"/>
<path d="M31.2133 14.78C31.2456 14.2408 31.278 13.7016 31.3104 13.1623C31.3168 13.0696 31.3312 12.9776 31.3535 12.8873C31.3858 12.7633 31.4667 12.6932 31.553 12.6986C31.6393 12.704 31.6986 12.7849 31.7148 12.9251C31.731 13.0653 31.7148 13.3079 31.7741 13.4967C31.8478 14.0251 32.085 14.5172 32.4525 14.904C32.8199 15.2908 33.2992 15.5529 33.8232 15.6536C34.5268 15.8634 35.2764 15.8634 35.9801 15.6536C36.4095 15.5351 36.7933 15.2902 37.0818 14.9507C37.3703 14.6113 37.55 14.193 37.5978 13.7501C37.6581 13.401 37.6358 13.0427 37.5328 12.7037C37.4298 12.3648 37.2489 12.0546 37.0046 11.7981C36.6716 11.4549 36.2944 11.1575 35.883 10.9138C35.2791 10.5471 34.6698 10.1966 34.0712 9.8353C33.4743 9.4665 32.9453 8.99772 32.5074 8.44949C32.0774 7.96001 31.7853 7.36492 31.6611 6.72529C31.537 6.08565 31.5853 5.4245 31.8011 4.80969C32.0883 4.01422 32.6663 3.35716 33.4187 2.97092C34.1877 2.5284 35.0508 2.27518 35.9369 2.23218C36.9713 2.16984 38.0094 2.2515 39.0213 2.47483C39.415 2.56111 39.4257 2.57728 39.415 2.97631C39.415 3.60721 39.3826 4.23811 39.361 4.86901C39.361 4.98224 39.361 5.09009 39.361 5.20333C39.364 5.23562 39.364 5.2681 39.361 5.30039C39.3233 5.45677 39.2478 5.53765 39.1507 5.52147C39.0537 5.5053 38.9782 5.4298 38.9782 5.27343C38.9567 4.76397 38.7518 4.27945 38.4012 3.90918C38.092 3.56405 37.6798 3.32771 37.2257 3.23514C36.457 3.02718 35.6408 3.08222 34.907 3.39152C34.5286 3.54038 34.201 3.79495 33.9634 4.12487C33.7357 4.48598 33.6349 4.91266 33.6769 5.33747C33.7189 5.76228 33.9013 6.16097 34.1952 6.47052C34.4577 6.7438 34.755 6.9813 35.0796 7.17691C35.5918 7.48427 36.1095 7.77545 36.6272 8.07203C37.2266 8.40269 37.7889 8.79679 38.3042 9.24754C38.9034 9.75008 39.3483 10.4118 39.5875 11.1564C39.7926 11.7421 39.8574 12.3677 39.7769 12.9829C39.6963 13.5982 39.4727 14.186 39.1238 14.6991C38.7853 15.2115 38.3404 15.6448 37.8193 15.9696C37.2981 16.2943 36.7131 16.5029 36.1041 16.5811C34.8589 16.7557 33.5928 16.7137 32.3618 16.457C32.0738 16.3823 31.791 16.2886 31.5153 16.1766C31.4219 16.1486 31.3411 16.0894 31.2861 16.0089C31.2312 15.9285 31.2055 15.8316 31.2133 15.7345C31.2187 15.4217 31.2133 15.0982 31.2133 14.78Z" fill="#BDBDBD"/>
<path d="M97.6945 3.93617C97.6945 4.29745 97.6945 4.65334 97.6945 5.01462C97.6875 5.13288 97.6694 5.25023 97.6406 5.36512C97.6352 5.40943 97.6133 5.4501 97.5794 5.47907C97.5454 5.50803 97.5018 5.52318 97.4572 5.5215C97.3494 5.5215 97.3224 5.42983 97.3062 5.34355C97.2984 5.2168 97.2822 5.09071 97.2577 4.96609C97.1877 4.58437 97.016 4.22861 96.7607 3.93631C96.5054 3.64401 96.176 3.426 95.8072 3.30527C95.3598 3.14074 94.8829 3.07204 94.4073 3.10363C93.9317 3.13521 93.468 3.26637 93.0463 3.48861C92.8145 3.59271 92.6081 3.74598 92.4415 3.93779C92.2748 4.1296 92.1518 4.35536 92.0811 4.59942C91.9858 4.89495 91.9659 5.20964 92.0234 5.5148C92.0808 5.81997 92.2137 6.1059 92.41 6.34652C92.6931 6.68225 93.0303 6.96837 93.4076 7.19311C93.8767 7.47351 94.3513 7.73234 94.8258 8.00734C95.5417 8.38927 96.205 8.86233 96.7994 9.41473C97.4266 9.98673 97.8585 10.7411 98.0342 11.5716C98.1738 12.1219 98.1931 12.6957 98.0907 13.2541C97.9883 13.8124 97.7667 14.3421 97.441 14.807C97.0979 15.3075 96.653 15.73 96.1355 16.0469C95.6179 16.3637 95.0393 16.5678 94.4375 16.6458C93.1938 16.8187 91.9295 16.7749 90.7007 16.5164C90.4181 16.4453 90.1407 16.3552 89.8703 16.2468C89.7702 16.2171 89.6837 16.1535 89.6256 16.0669C89.5675 15.9802 89.5415 15.876 89.5521 15.7722C89.5521 15.1413 89.5845 14.5104 89.6114 13.8795C89.6114 13.6207 89.6438 13.3403 89.6654 13.1084C89.6696 13.0353 89.6822 12.963 89.7031 12.8928C89.7462 12.7741 89.8217 12.7148 89.9026 12.7256C89.9835 12.7364 90.0374 12.8119 90.0482 12.9359C90.0543 13.075 90.0687 13.2137 90.0913 13.3511C90.1518 13.6575 90.2366 13.9586 90.3448 14.2516C90.55 14.7507 90.9348 15.1547 91.4232 15.384C91.8692 15.6233 92.3586 15.7705 92.8626 15.8168C93.3665 15.8631 93.8746 15.8076 94.3567 15.6536C94.7754 15.5457 95.1526 15.3159 95.4406 14.9933C95.7286 14.6708 95.9144 14.27 95.9743 13.8418C96.0532 13.4592 96.0332 13.0628 95.9162 12.6901C95.7992 12.3174 95.5891 11.9807 95.3057 11.7118C94.9618 11.378 94.5778 11.0882 94.1625 10.8491L92.6581 9.95396C92.1036 9.62578 91.5927 9.22901 91.1374 8.77305C90.5979 8.25893 90.2227 7.59661 90.059 6.86957C89.858 6.11302 89.9235 5.31032 90.2446 4.59641C90.5657 3.8825 91.1228 3.3009 91.8223 2.94938C92.5876 2.51439 93.4449 2.26678 94.3243 2.22681C95.3446 2.1719 96.3676 2.25534 97.3656 2.47486H97.4087C97.77 2.56113 97.7862 2.5827 97.77 2.96016C97.7538 3.33762 97.7376 3.60724 97.7268 3.93077L97.6945 3.93617Z" fill="#BDBDBD"/>
<path d="M82.068 16.7159C81.3157 16.7065 80.5662 16.6234 79.8302 16.4679C79.5552 16.3978 79.2909 16.2899 79.0213 16.2036C78.9181 16.1733 78.8282 16.1087 78.7664 16.0205C78.7047 15.9323 78.6748 15.8258 78.6816 15.7183C78.6816 15.5188 78.6816 15.3193 78.6816 15.1198C78.714 14.435 78.7517 13.7555 78.7895 13.0707C78.7983 12.9788 78.8182 12.8883 78.8488 12.8011C78.8579 12.761 78.8819 12.7259 78.9159 12.7028C78.95 12.6798 78.9915 12.6706 79.0321 12.6771C79.1238 12.6771 79.1615 12.758 79.1723 12.8442C79.1723 13.0545 79.2101 13.2702 79.2478 13.4751C79.3355 14.0936 79.6509 14.657 80.1321 15.0551C80.5263 15.3631 80.9886 15.572 81.4802 15.6644C82.1399 15.8283 82.8319 15.8078 83.4808 15.6051C83.8835 15.4907 84.2459 15.2652 84.5263 14.9542C84.8067 14.6433 84.9938 14.2596 85.0661 13.8472C85.1588 13.4464 85.1427 13.0281 85.0195 12.6356C84.8962 12.2431 84.6703 11.8907 84.3651 11.6148C84.0361 11.3098 83.6744 11.0422 83.2866 10.8167C82.7474 10.4932 82.2082 10.1805 81.6689 9.84614C81.066 9.47921 80.5209 9.02491 80.0513 8.49806C79.4565 7.82393 79.1219 6.95964 79.1076 6.06075C79.0812 5.49327 79.2025 4.92865 79.4595 4.42206C79.7166 3.91547 80.1007 3.48423 80.5743 3.17048C81.2182 2.72145 81.9558 2.4246 82.7312 2.30232C83.5178 2.17567 84.3182 2.15934 85.1092 2.25379C85.5891 2.30772 86.0691 2.38321 86.5436 2.47488C86.9103 2.53958 86.9264 2.5989 86.9103 2.97636C86.8779 3.62343 86.8671 4.2759 86.8456 4.92298C86.8456 5.047 86.8456 5.17641 86.8132 5.30044C86.8076 5.34613 86.7889 5.38922 86.7593 5.42446C86.7207 5.46641 86.6697 5.49478 86.6137 5.50534C86.5382 5.50534 86.5004 5.45681 86.4735 5.39211C86.4705 5.35802 86.4705 5.32374 86.4735 5.28965C86.4483 4.78083 86.251 4.29565 85.914 3.91358C85.577 3.53152 85.1202 3.27522 84.6185 3.18666C83.8103 2.99011 82.9584 3.09158 82.219 3.47245C82.0003 3.57436 81.8042 3.71891 81.6422 3.89762C81.4801 4.07633 81.3554 4.28561 81.2753 4.51316C81.1607 4.82659 81.1323 5.16502 81.193 5.49317C81.2537 5.82133 81.4013 6.12719 81.6204 6.37889C81.8854 6.68782 82.1986 6.95186 82.5479 7.16078C83.0871 7.47353 83.594 7.76471 84.1171 8.06668C84.6637 8.36682 85.1802 8.71895 85.6592 9.11818C86.2245 9.5856 86.6731 10.1782 86.9696 10.8491C87.2457 11.521 87.346 12.2522 87.2608 12.9737C87.1289 13.8915 86.7019 14.7415 86.0443 15.3952C85.3867 16.049 84.5342 16.4709 83.6156 16.5973C83.0871 16.662 82.5749 16.6836 82.068 16.7159Z" fill="#BDBDBD"/>
<path d="M5.27615 39.6982L2.74178 39.7629H2.3104C2.23692 39.7709 2.16279 39.7709 2.08931 39.7629C1.9599 39.7629 1.8844 39.6712 1.8898 39.5796C1.89519 39.4879 1.96529 39.4501 2.1001 39.434L2.75256 39.3639H2.84962C3.03837 39.3561 3.21748 39.2784 3.35205 39.1458C3.48663 39.0132 3.56702 38.8353 3.57758 38.6467C3.64506 38.2908 3.68472 37.9302 3.69621 37.5682C3.72857 36.7216 3.75014 35.8697 3.75014 35.0231C3.75014 31.9279 3.75014 28.8345 3.75014 25.7429C3.75014 25.3547 3.707 24.9718 3.67464 24.589C3.65923 24.478 3.63025 24.3694 3.58837 24.2654C3.54518 24.1381 3.46988 24.0241 3.36976 23.9344C3.26964 23.8446 3.14806 23.7822 3.01679 23.7532C2.74717 23.6993 2.47756 23.6777 2.19176 23.6453H1.99225C1.95537 23.6394 1.92153 23.6214 1.89612 23.594C1.87071 23.5666 1.8552 23.5316 1.85205 23.4944C1.85205 23.4081 1.90597 23.3649 1.98686 23.3488C2.09344 23.3278 2.20177 23.3169 2.3104 23.3164C3.07071 23.3164 3.83641 23.3542 4.60212 23.3595C5.28155 23.3595 5.96637 23.3595 6.65119 23.3595C7.061 23.3595 7.47082 23.3595 7.88602 23.3595C7.97845 23.3624 8.07045 23.3733 8.16103 23.3919C8.19448 23.3972 8.22452 23.4155 8.24468 23.4427C8.26484 23.4699 8.27353 23.5039 8.26887 23.5375C8.26971 23.5711 8.25889 23.604 8.23825 23.6305C8.21761 23.657 8.18842 23.6756 8.15564 23.6831C8.09645 23.6887 8.03687 23.6887 7.97769 23.6831C7.762 23.6831 7.54631 23.7208 7.32522 23.7532C7.13068 23.7633 6.94601 23.842 6.80389 23.9752C6.66178 24.1084 6.57139 24.2877 6.54873 24.4811C6.48787 24.8684 6.45364 25.2593 6.44628 25.6513C6.44628 26.3361 6.44628 27.0155 6.44628 27.7003C6.44628 30.6014 6.44628 33.5024 6.44628 36.4035C6.44628 37.0236 6.49481 37.6383 6.52177 38.2584C6.52919 38.3696 6.54725 38.4797 6.5757 38.5874C6.60119 38.7921 6.69877 38.9811 6.85094 39.1204C7.00311 39.2597 7.19992 39.3403 7.40611 39.3477C7.76739 39.3908 8.13407 39.407 8.48457 39.434C8.56329 39.4351 8.64141 39.4478 8.71643 39.4717C8.74244 39.4817 8.76574 39.4976 8.78447 39.5182C8.80321 39.5388 8.81684 39.5635 8.82428 39.5903C8.8207 39.6185 8.81115 39.6456 8.79628 39.6697C8.7814 39.6939 8.76153 39.7146 8.738 39.7305C8.64616 39.7642 8.54987 39.7842 8.45221 39.7899C8.2527 39.7899 8.05318 39.7899 7.85367 39.7899L6.62423 39.7413C6.21441 39.7359 5.8046 39.7198 5.27615 39.6982Z" fill="#BDBDBD"/>
<path d="M47.757 32.5857C47.757 33.7936 47.757 35.0069 47.757 36.2147C47.757 36.8888 47.7948 37.5682 47.8217 38.2422C47.8314 38.4075 47.8549 38.5716 47.8918 38.7329C47.9157 38.8862 47.9894 39.0273 48.1015 39.1345C48.2135 39.2417 48.3578 39.309 48.5119 39.3261C48.8462 39.3692 49.186 39.3854 49.5257 39.4124C49.6099 39.4157 49.6933 39.4302 49.7737 39.4555C49.8003 39.4722 49.8232 39.4942 49.8408 39.5202C49.8585 39.5462 49.8705 39.5756 49.8762 39.6065C49.8762 39.6442 49.8115 39.7143 49.7683 39.7305C49.6717 39.7568 49.5719 39.7695 49.4718 39.7683C48.7761 39.7683 48.0805 39.7359 47.3849 39.7305C46.6893 39.7251 46.107 39.7305 45.4707 39.7305L43.977 39.7629C43.8838 39.7667 43.7907 39.7539 43.702 39.7251C43.6735 39.7123 43.6483 39.6929 43.6287 39.6685C43.609 39.6442 43.5953 39.6155 43.5888 39.5849C43.5888 39.5202 43.6265 39.4609 43.6966 39.4447C43.773 39.4269 43.8504 39.4143 43.9285 39.407C44.1334 39.407 44.3383 39.3692 44.5432 39.3369C44.6669 39.3219 44.7823 39.2669 44.8719 39.1802C44.9614 39.0936 45.0202 38.9801 45.0393 38.857C45.1033 38.5787 45.143 38.2955 45.1579 38.0104C45.1849 37.1907 45.2065 36.3927 45.2065 35.5461C45.2065 32.9075 45.2065 30.2706 45.2065 27.6356C45.2054 27.3571 45.1801 27.0793 45.131 26.8052C45.1074 26.6668 45.0438 26.5384 44.9479 26.4358C44.8521 26.3332 44.7282 26.2611 44.5917 26.2282C44.3716 26.151 44.1402 26.1109 43.9069 26.1096C43.8226 26.1173 43.7378 26.1173 43.6535 26.1096C43.6168 26.1055 43.583 26.0877 43.559 26.0596C43.5349 26.0316 43.5225 25.9955 43.5241 25.9586C43.5241 25.8777 43.5834 25.8454 43.6481 25.8292C43.727 25.8213 43.8065 25.8213 43.8853 25.8292C44.4246 25.8292 44.9638 25.8292 45.503 25.8292H48.2477H49.0619C49.1348 25.8324 49.2071 25.8433 49.2776 25.8615C49.2927 25.862 49.3074 25.8657 49.3208 25.8725C49.3342 25.8793 49.346 25.889 49.3552 25.9008C49.3645 25.9126 49.371 25.9264 49.3744 25.941C49.3778 25.9557 49.3779 25.9709 49.3747 25.9856C49.3622 26.0419 49.3296 26.0917 49.283 26.1258C49.2073 26.1468 49.1296 26.1594 49.0512 26.1635C48.8409 26.1959 48.6252 26.212 48.4203 26.2498C48.2864 26.2747 48.1633 26.3396 48.0671 26.4358C47.9708 26.5321 47.906 26.6552 47.881 26.789C47.8277 27.0231 47.7934 27.2612 47.7786 27.5008C47.7786 28.3258 47.7786 29.1508 47.7786 29.9705C47.7786 30.7901 47.7786 31.7122 47.7786 32.5803L47.757 32.5857Z" fill="#BDBDBD"/>
<path d="M44.3057 16.3978L42.2135 16.4572C42.0339 16.4679 41.8538 16.4679 41.6742 16.4572C41.5179 16.4572 41.4424 16.3817 41.4478 16.29C41.4532 16.1983 41.5448 16.1336 41.685 16.1174C41.8252 16.1013 42.0841 16.1174 42.2836 16.0743C42.4452 16.0713 42.6001 16.0093 42.7193 15.9001C42.8384 15.7909 42.9136 15.6419 42.9306 15.4811C42.981 15.1939 43.0152 14.9041 43.0331 14.613C43.0331 13.9713 43.0762 13.3242 43.0762 12.6826C43.0762 9.93248 43.0762 7.18421 43.0762 4.43774C43.0743 4.13986 43.0509 3.84251 43.0061 3.54801C42.9864 3.40215 42.925 3.26506 42.8294 3.15317C42.7338 3.04128 42.6079 2.95932 42.4669 2.91712C42.2446 2.85069 42.0141 2.8162 41.7821 2.81466C41.7032 2.82289 41.6237 2.82289 41.5448 2.81466C41.5131 2.80494 41.4856 2.78467 41.467 2.75721C41.4484 2.72975 41.4397 2.69675 41.4424 2.66368C41.4424 2.58819 41.4909 2.55583 41.5556 2.54505C41.6388 2.526 41.7237 2.51516 41.809 2.5127H43.3189C44.2787 2.5127 45.2332 2.5127 46.1876 2.5127H46.9048C46.9776 2.51552 47.05 2.52637 47.1205 2.54505C47.1357 2.54626 47.1505 2.5507 47.1639 2.55808C47.1773 2.56546 47.189 2.57561 47.1982 2.58785C47.2074 2.60009 47.2138 2.61414 47.2172 2.62908C47.2205 2.64401 47.2206 2.65948 47.2175 2.67446C47.2013 2.72764 47.167 2.77344 47.1205 2.80388C47.0532 2.82958 46.9821 2.84415 46.9102 2.84702C46.716 2.84702 46.5273 2.88476 46.3386 2.91712C46.1531 2.93222 45.9805 3.01774 45.8562 3.15613C45.7318 3.29452 45.6652 3.47527 45.6699 3.66125C45.6268 4.08185 45.5998 4.50784 45.5944 4.93383C45.5944 7.83488 45.5944 10.7359 45.5944 13.637C45.5944 14.1061 45.6322 14.5752 45.6537 15.0498C45.6684 15.1934 45.6936 15.3358 45.7292 15.4758C45.7541 15.6252 45.8271 15.7623 45.9371 15.8665C46.0471 15.9706 46.188 16.036 46.3386 16.0527C46.592 16.0959 46.8778 16.112 47.1097 16.139C47.2337 16.139 47.3631 16.139 47.4871 16.139C47.6111 16.139 47.719 16.2307 47.7136 16.317C47.7082 16.4032 47.6327 16.4679 47.4871 16.4733C47.2391 16.4733 46.9856 16.4733 46.7322 16.4733L44.3057 16.3978Z" fill="#BDBDBD"/>
</svg>
