<svg width="179" height="40" viewBox="0 0 179 40" fill="none" xmlns="http://www.w3.org/2000/svg">
<path d="M145.075 37.9162C145.075 38.4687 145.001 38.8993 144.953 39.4436C142.572 39.4436 140.241 39.4436 137.917 39.3949C137.69 39.3949 137.478 38.5824 137.267 38.2168L137.486 37.9162C138.055 37.9162 138.624 37.9162 139.184 37.9162C139.745 37.9162 139.997 37.7375 139.997 37.1526C139.997 36.9494 139.997 36.7382 139.997 36.5351V3.51797C139.997 2.07185 139.997 2.07997 138.543 2.04747C138.21 2.04747 137.876 1.99873 137.486 1.96623V0.463235C137.836 0.463235 138.169 0.398241 138.502 0.398241C141.63 0.398241 144.758 0.398241 147.886 0.398241C148.698 0.398241 148.99 0.666343 149.177 1.4544C150.916 8.89625 152.703 16.33 154.482 23.7637C154.552 23.9846 154.633 24.2015 154.726 24.4137L157.05 15.3551C158.236 10.708 159.43 6.06088 160.584 1.40565C160.596 1.24659 160.641 1.09185 160.717 0.951513C160.793 0.811172 160.898 0.688359 161.024 0.591053C161.151 0.493747 161.296 0.424124 161.451 0.386707C161.606 0.34929 161.767 0.344916 161.924 0.373868C164.955 0.422614 167.977 0.373868 171.007 0.373868C171.6 0.373868 172.063 0.373868 172.055 1.1863C172.047 1.99873 171.56 1.99873 170.983 1.99873H169.602V37.8512L171.966 37.9731V39.3949H158.878C158.537 38.0219 158.61 37.9162 159.901 37.9162C160.478 37.9162 161.063 37.9162 161.721 37.9162V3.70483C161.542 4.32228 161.396 4.74474 161.291 5.17533C158.463 16.2948 155.636 27.4196 152.809 38.5499C152.655 39.1511 152.451 39.4924 151.728 39.4842C151.005 39.4761 150.705 39.2892 150.542 38.5662C148.598 30.2957 146.64 22.0278 144.668 13.7627C143.856 10.4561 143.125 7.15766 142.353 3.85107C142.305 3.63141 142.182 3.43568 142.004 3.29861V36.4376C142.004 37.9162 142.004 37.9162 143.531 37.9162H145.075Z" fill="#BDBDBD"/>
<path d="M60.0373 19.8966C60.0373 25.4319 60.0373 30.9673 60.0373 36.5026C60.0373 38.0138 60.0373 38.0219 61.5971 38.0219C61.9054 37.9975 62.2151 37.9975 62.5233 38.0219C63.0351 38.1113 63.8963 37.6807 63.9288 38.5662C63.9613 39.4518 63.1164 39.143 62.572 39.1593C60.7847 39.1593 58.9974 39.1593 57.21 39.1593H49.5813C49.378 39.2048 49.1671 39.2048 48.9638 39.1593C48.6735 38.993 48.4012 38.797 48.1514 38.5743C48.4195 38.3956 48.6795 38.1031 48.9638 38.0544C49.4774 38.0099 49.9939 38.0099 50.5075 38.0544C52.0673 38.0544 52.0673 38.0544 52.0673 36.5351V13.6003C52.0673 10.1312 52.0673 6.65398 52.0673 3.18491C52.0673 1.8119 51.9861 1.70629 50.5968 1.8119C48.0052 2.01501 46.4941 3.71299 45.5923 5.87405C44.9227 7.73576 44.3611 9.63459 43.9105 11.5611C43.8618 11.7235 43.9105 11.9591 43.8293 12.0566C43.5507 12.294 43.2577 12.5138 42.9519 12.7147C42.7569 12.4466 42.3994 12.1785 42.3994 11.9023C42.4563 9.29438 42.5619 6.68648 42.6594 4.07858C42.6594 3.32302 42.7975 2.56746 42.7488 1.82003C42.6919 0.853236 43.0737 0.57701 44.008 0.585134C50.1906 0.585134 56.3813 0.585134 62.572 0.585134C64.4569 0.585134 66.3498 0.585134 68.259 0.585134C69.0065 0.63388 69.3071 0.853236 69.3071 1.62504C69.4046 5.02912 69.5589 8.42508 69.6889 11.821C69.6889 12.2922 69.6889 12.7228 69.0471 12.7553C68.4053 12.7878 68.2347 12.536 68.1372 11.9429C67.8673 9.54708 67.1625 7.22063 66.0574 5.07787C64.985 3.16866 63.5063 1.88502 61.1828 1.82815C60.2647 1.82815 60.0048 2.13687 60.0129 3.02242C60.0454 8.62006 60.0373 14.2583 60.0373 19.8966Z" fill="#BDBDBD"/>
<path d="M129.703 39.4765H123.837C121.676 39.4765 119.507 39.4765 117.338 39.4765C116.753 39.4765 116.452 39.3384 116.452 38.6641C116.452 37.9897 116.793 37.8516 117.362 37.8516C117.931 37.8516 118.581 37.8516 119.344 37.8516L117.833 32.2702C117.5 31.011 117.143 29.7598 116.834 28.4924C116.688 27.9075 116.444 27.68 115.786 27.68C113.755 27.7206 111.724 27.68 109.701 27.7206C109.519 27.7369 109.344 27.7962 109.19 27.8937C109.036 27.9912 108.908 28.124 108.815 28.2812C108.003 31.2791 107.191 34.3013 106.378 37.3154C106.353 37.5015 106.353 37.69 106.378 37.876C107.134 37.876 107.873 37.876 108.62 37.876C109.896 37.876 109.896 37.876 109.758 39.3302H101.577V37.9166C102.267 37.9166 102.909 37.876 103.543 37.9166C103.66 37.9373 103.78 37.9337 103.896 37.906C104.012 37.8782 104.121 37.8269 104.216 37.7553C104.312 37.6837 104.391 37.5933 104.45 37.4897C104.509 37.386 104.546 37.2714 104.558 37.1529C105.728 32.9283 106.906 28.7037 108.092 24.479C110.107 17.2592 112.119 10.034 114.129 2.80341C114.277 2.42209 114.388 2.02767 114.462 1.62539C114.551 0.642347 115.014 0.349872 116.005 0.349872C116.194 0.31391 116.389 0.318088 116.576 0.362135C116.764 0.406183 116.94 0.489115 117.093 0.605554C117.246 0.721993 117.373 0.869337 117.466 1.03803C117.558 1.20672 117.614 1.39299 117.63 1.58477C120.782 13.2188 123.992 24.8446 127.144 36.5192C127.412 37.5104 127.664 38.1441 128.866 37.9654C130.069 37.7866 129.557 38.7209 129.703 39.4765ZM112.853 13.9418H112.65L109.4 25.9658H116.062C114.957 21.8711 113.909 17.874 112.853 13.9418Z" fill="#BDBDBD"/>
<path d="M88.2289 18.4017L95.0289 1.82C94.3038 1.86261 93.5768 1.86261 92.8516 1.82C92.6079 1.82 92.4048 1.4544 92.1773 1.25942C92.4048 1.06444 92.6323 0.715094 92.8597 0.706969C94.6146 0.658224 96.3694 0.658224 98.1243 0.706969C98.368 0.706969 98.6036 1.05631 98.8392 1.23505C98.5874 1.43816 98.303 1.8525 98.0837 1.81187C96.7269 1.59252 96.3451 2.43744 95.9307 3.47735C93.8103 8.80689 91.6167 14.1121 89.48 19.4335C89.2723 19.9498 89.1674 20.5018 89.1713 21.0583C89.1713 26.2823 89.1713 31.5062 89.1713 36.7382C89.1713 38.0706 89.1713 38.095 90.5768 38.1031C91.09 38.0502 91.6072 38.0502 92.1204 38.1031C92.3885 38.16 92.5998 38.5012 92.8435 38.7205C92.6079 38.9399 92.3885 39.3217 92.1367 39.3461C91.3242 39.4274 90.4224 39.3867 89.5613 39.3867C86.0922 39.3867 82.6231 39.3867 79.1459 39.3867C78.821 39.3867 78.3335 39.2568 78.1954 39.0293C77.9842 38.6231 78.0654 38.1194 78.7316 38.095C79.3978 38.0706 79.8365 38.0544 80.3564 38.095C81.1689 38.16 81.4207 37.7863 81.4207 36.9982C81.4207 32.1886 81.5101 27.3709 81.3395 22.5694C81.2907 21.1639 80.5271 19.7584 79.9909 18.3936C77.9842 13.3565 75.9287 8.33568 73.9058 3.2905C73.5483 2.3887 73.1746 1.66564 72.0209 1.84437C71.8097 1.84437 71.5416 1.51127 71.2979 1.33254C71.5497 1.12131 71.7934 0.731342 72.0453 0.731342C75.62 0.693429 79.1947 0.693429 82.7694 0.731342C83.0293 0.731342 83.2893 1.09694 83.5818 1.30004C83.3272 1.50937 83.0554 1.69689 82.7694 1.86062C82.5656 1.90198 82.3556 1.90198 82.1519 1.86062C81.2014 1.86062 81.2907 2.34808 81.5588 3.00615C82.8912 6.20712 84.2128 9.41351 85.5235 12.6253C86.3359 14.5589 87.1484 16.4844 87.8958 18.4179L88.2289 18.4017Z" fill="#BDBDBD"/>
<path d="M21.4306 3.08757C21.845 2.35638 22.17 1.71456 22.568 1.12149C22.7833 0.887757 23.0325 0.687818 23.3074 0.528414C23.4536 0.796516 23.7136 1.06462 23.7217 1.34084C23.7217 4.36308 23.7217 7.39344 23.7217 10.4157C23.7217 10.7 23.4049 10.9844 23.2424 11.2281C23.0149 10.9763 22.6899 10.765 22.5843 10.4726C21.9344 8.66896 21.455 6.79225 20.667 5.05365C20.2589 4.07863 19.6131 3.22135 18.7886 2.56003C17.9641 1.89871 16.9871 1.45443 15.9467 1.26772C13.3064 0.755894 11.1128 1.82018 10.3329 4.39558C9.74064 6.2582 9.40981 8.194 9.34982 10.1476C9.22795 16.647 9.26858 23.1465 9.34982 29.6459C9.39098 31.1905 9.59522 32.7263 9.95914 34.228C10.5035 36.5678 11.8115 38.2901 14.3625 38.7045C16.9135 39.1188 18.644 38.022 20.0495 36.1616C21.4984 34.1817 22.4512 31.8833 22.828 29.459C22.893 29.1341 23.2261 28.8497 23.4373 28.5491C23.608 28.866 23.9248 29.1747 23.9329 29.4915C23.9329 32.5138 23.9329 35.5441 23.9329 38.5664C23.9329 38.8751 23.7623 39.3788 23.6242 39.4357C23.2586 39.4357 22.698 39.4357 22.5274 39.1594C21.5931 37.8108 20.667 38.0383 19.3508 38.7289C17.2737 39.8031 14.9159 40.211 12.5986 39.897C10.2813 39.583 8.11705 38.5623 6.4007 36.974C3.15098 34.0736 1.52612 30.3365 0.827434 26.1931C-0.0824874 21.0504 0.0150041 15.9158 1.7861 10.9356C2.93549 7.37288 5.17841 4.26293 8.19617 2.04766C11.8196 -0.478998 16.7023 -1.0152 20.6507 2.43762C20.8538 2.64073 21.0732 2.80322 21.4306 3.08757Z" fill="#BDBDBD"/>
<path d="M33.2273 39.3626H27.2478C26.7847 39.3626 26.3135 39.3626 26.3135 38.7208C26.3135 38.079 26.7603 38.0708 27.2315 38.0465C29.417 37.9652 29.4088 37.9652 29.4088 35.8042C29.4088 25.0368 29.4088 14.2721 29.4088 3.51008C29.4088 1.88522 29.4088 1.88522 27.784 1.82023C27.2721 1.82023 26.4028 2.1777 26.3703 1.29215C26.3297 0.268487 27.2803 0.674701 27.7921 0.666577C31.4724 0.666577 35.1527 0.666577 38.833 0.666577C39.14 0.631676 39.4507 0.650924 39.7511 0.723447C39.8647 0.772426 39.9648 0.848302 40.0426 0.944541C40.1205 1.04078 40.1738 1.1545 40.1979 1.2759C40.1714 1.39485 40.115 1.50506 40.0339 1.59606C39.9529 1.68706 39.8499 1.75584 39.7348 1.79585C39.158 1.8771 38.5487 1.74711 37.9962 1.88522C37.6712 1.96646 37.3869 2.36455 37.1838 2.69765C37.07 2.86826 37.1838 3.16886 37.1838 3.40446V36.4947C37.1838 38.0383 37.1838 37.9977 38.7355 38.0627C39.288 38.0627 40.2548 37.624 40.2548 38.7045C40.2548 39.7851 39.2717 39.322 38.7274 39.3382C36.8751 39.3951 35.0552 39.3626 33.2273 39.3626Z" fill="#BDBDBD"/>
<path d="M178.172 34.8616V39.4356C176.71 39.4356 175.288 39.4356 173.867 39.4356C173.704 39.4356 173.444 39.0213 173.428 38.7857C173.371 37.7276 173.371 36.6672 173.428 35.6091C173.428 35.3572 173.818 34.9348 174.045 34.9266C175.345 34.8291 176.669 34.8616 178.172 34.8616Z" fill="#BDBDBD"/>
<path d="M135.691 39.4517C134.22 39.4517 132.92 39.4517 131.629 39.4517C131.47 39.4137 131.323 39.3344 131.205 39.2216C131.087 39.1089 131 38.9668 130.954 38.8098C130.877 37.747 130.877 36.6799 130.954 35.617C131.006 35.4483 131.1 35.2959 131.228 35.1748C131.357 35.0538 131.514 34.9681 131.686 34.9264C132.784 34.8533 133.886 34.8533 134.984 34.9264C135.228 34.9264 135.65 35.3083 135.658 35.5276C135.731 36.7463 135.691 38.0137 135.691 39.4517Z" fill="#BDBDBD"/>
</svg>
