<svg width="96" height="40" viewBox="0 0 96 40" fill="none" xmlns="http://www.w3.org/2000/svg">
<path d="M74.3624 0.0477876C75.5349 0.0477876 76.7075 0.0477876 77.88 0.0477876C78.1591 0.0113572 78.4421 0.0732718 78.6804 0.222888C78.9188 0.372505 79.0976 0.600477 79.186 0.867616C80.2918 3.37477 81.4549 5.86285 82.5893 8.35093L95.1632 35.7485C95.5254 36.5492 95.5254 36.5492 94.8867 37.1307C94.0097 37.941 93.1326 38.7418 92.2652 39.5711C92.1317 39.701 91.9734 39.8025 91.7998 39.8697C91.6262 39.9369 91.4407 39.9683 91.2547 39.962C89.6627 39.962 88.0707 39.962 86.4882 39.962C86.2503 39.9832 86.0124 39.9218 85.8144 39.7881C85.6165 39.6544 85.4707 39.4566 85.4015 39.228C84.5149 37.2451 83.5712 35.2813 82.6846 33.2985C82.6214 33.1031 82.4909 32.9364 82.3163 32.8282C82.1418 32.72 81.9345 32.6772 81.7313 32.7075C76.8632 32.7075 71.9855 32.7075 67.0983 32.7075C66.8984 32.6716 66.6923 32.7086 66.5173 32.8118C66.3424 32.915 66.2103 33.0776 66.145 33.2699C65.1918 35.2909 64.2385 37.2928 63.3519 39.3138C63.2856 39.5339 63.142 39.7226 62.9476 39.8453C62.7532 39.9679 62.5209 40.0161 62.2938 39.9811C60.8924 39.9811 59.4911 39.9811 58.0897 39.9811C57.8831 39.9998 57.6757 39.9551 57.4952 39.8529C57.3146 39.7507 57.1695 39.5959 57.0793 39.4091C56.2213 37.922 55.3284 36.4412 54.4005 34.9668C54.2587 34.7783 54.175 34.5524 54.1598 34.317C54.1445 34.0816 54.1984 33.8469 54.3147 33.6417C57.2254 27.4453 60.1171 21.2426 62.9897 15.0335C65.1822 10.337 67.3716 5.64359 69.5578 0.953412L69.7389 0.553031C69.7978 0.396005 69.9079 0.263471 70.0516 0.176945C70.1952 0.090419 70.3639 0.0549818 70.5302 0.0763863L74.3624 0.0477876ZM57.6131 38.8848C57.7752 38.5416 57.8896 38.3223 57.9944 38.1031C62.4113 28.5702 66.8282 19.0691 71.2451 9.59974C71.3175 9.42483 71.4036 9.25589 71.5025 9.0945C71.7313 8.77038 71.9696 8.77038 72.1794 9.0945C72.2556 9.21843 72.3128 9.36142 72.3796 9.48535C72.9769 10.8009 73.5839 12.1101 74.2003 13.4129C75.7574 16.7812 77.3144 20.1399 78.8714 23.4892C78.9222 23.667 79.0343 23.8211 79.1879 23.9241C79.3415 24.027 79.5266 24.0722 79.7103 24.0516C80.7399 24.0516 81.7599 24.0516 82.7895 24.0516C82.942 24.0516 83.104 24.0516 83.2947 24.0516C83.2375 23.8991 83.2089 23.8037 83.1708 23.7084C82.1126 21.3824 81.0545 19.0659 80.0059 16.7399C78.3408 13.0538 76.6789 9.38049 75.0202 5.71986C74.3338 4.21366 73.6284 2.717 72.9706 1.20127C72.9147 1.00282 72.7843 0.833599 72.6068 0.72883C72.4292 0.624062 72.2181 0.591823 72.0173 0.638827C71.6624 0.67697 71.3045 0.67697 70.9496 0.638827C70.7489 0.591823 70.5377 0.624062 70.3602 0.72883C70.1826 0.833599 70.0523 1.00282 69.9963 1.20127C69.1002 3.18411 68.166 5.14788 67.2509 7.12119C64.5562 12.9553 61.8616 18.7831 59.167 24.6045C57.7561 27.6677 56.3389 30.7246 54.9153 33.7751C54.8404 33.8988 54.8008 34.0405 54.8008 34.1851C54.8008 34.3296 54.8404 34.4714 54.9153 34.595C55.8495 35.9772 56.6884 37.369 57.6131 38.8848ZM94.5149 36.0916C94.4291 35.8629 94.3719 35.6817 94.2957 35.5197L85.8591 16.8924C84.1686 13.2254 82.4844 9.55208 80.8066 5.87238C80.0917 4.28992 79.3576 2.717 78.6427 1.10594C78.5187 0.819952 78.3853 0.610228 78.0135 0.610228C76.6121 0.610228 75.2108 0.610228 73.8095 0.610228C73.6916 0.636812 73.5766 0.675134 73.4663 0.724623C73.5998 1.03921 73.7046 1.32519 73.8285 1.61118L77.6417 9.819L83.3614 22.2118C83.6379 22.8219 83.9239 23.4224 84.1717 24.0421C84.3529 24.4901 84.1717 24.6617 83.7523 24.6903H83.247C79.1193 24.6903 75.0011 24.6903 70.8543 24.6903C70.671 24.6613 70.4834 24.6994 70.3259 24.7974C70.1683 24.8954 70.0513 25.0469 69.9963 25.2241C69.5483 26.2823 69.043 27.3118 68.5664 28.3605C68.4997 28.513 68.452 28.6655 68.3662 28.9324H69.167C74.6102 28.9324 80.0535 28.9324 85.4968 28.9324C85.7711 28.895 86.0499 28.9557 86.2837 29.104C86.5174 29.2523 86.6912 29.4786 86.7742 29.7427C87.6322 31.716 88.5664 33.6608 89.4434 35.6341C89.4997 35.8091 89.6151 35.9591 89.77 36.0582C89.9248 36.1574 90.1093 36.1995 90.2918 36.1774C91.5311 36.1774 92.7609 36.1774 94.0001 36.1774L94.5149 36.0916ZM71.9124 10.0287H71.7504C67.2509 19.7427 62.7609 29.4472 58.2137 39.2375H58.9191C59.9201 39.2375 60.9306 39.2375 61.9315 39.2375C62.1359 39.2503 62.3389 39.1969 62.5106 39.0854C62.6823 38.9737 62.8135 38.8098 62.8848 38.6179C63.7714 36.635 64.7246 34.6712 65.6207 32.6884C65.687 32.4683 65.8306 32.2795 66.025 32.1569C66.2195 32.0343 66.4517 31.986 66.6789 32.0211C68.5187 32.0211 70.3586 32.0211 72.208 32.0211C75.4301 32.0211 78.6522 32.0211 81.8743 32.0211C82.0524 32.0251 82.2294 31.9915 82.3936 31.9225C82.5579 31.8535 82.7057 31.7507 82.8276 31.6207C83.2375 31.2013 83.6856 30.8295 84.1145 30.4291L84.963 29.6283L85.0202 29.5521H68.4043C68.217 29.5615 68.0293 29.5615 67.8419 29.5521C67.451 29.5521 67.3271 29.3328 67.4606 28.9515C67.594 28.5702 67.718 28.3795 67.8419 28.0935C69.8438 23.7656 71.8425 19.4345 73.8381 15.1002C73.9217 14.9553 73.9658 14.7909 73.9658 14.6236C73.9658 14.4562 73.9217 14.2918 73.8381 14.1469C73.4854 13.432 73.1708 12.6979 72.8848 11.983C72.5988 11.268 72.2175 10.6865 71.9124 10.0287ZM74.4196 15.4148L70.492 23.9944H78.3853L74.4196 15.4148ZM86.0783 39.085L88.7189 36.5969C88.9668 36.3776 88.8619 36.1584 88.7189 35.9296C87.8705 34.023 87.0316 32.2022 86.1736 30.3433C86.09 30.1734 85.9978 30.008 85.8972 29.8476L83.0373 32.5073L86.0783 39.085ZM87.0316 39.1994C87.1079 39.2566 87.146 39.2947 87.1746 39.2947C88.5473 39.2947 89.9296 39.2947 91.3119 39.2947C91.4554 39.2989 91.5962 39.2553 91.7122 39.1708C92.5225 38.4463 93.3138 37.7218 94.1431 36.9591C94.0287 36.9591 93.9715 36.8638 93.9239 36.8638C92.5416 36.8638 91.1593 36.8638 89.7866 36.8638C89.641 36.8658 89.5002 36.9161 89.3862 37.0068C88.5569 37.7027 87.7656 38.4272 86.9935 39.1517L87.0316 39.1994Z" fill="#BDBDBD"/>
<path d="M0.0633162 20.3623C0.0633162 15.1669 0.110981 9.97147 0.0633162 4.76651C0.046775 4.51104 0.104595 4.25624 0.229785 4.03293C0.354975 3.80962 0.542174 3.62735 0.76875 3.50817C2.39887 2.47862 3.98133 1.39187 5.60192 0.352786C5.85979 0.179145 6.15917 0.0771574 6.46942 0.0572667C11.3503 0.0187221 16.1559 1.26122 20.4065 3.6607C22.3952 4.77563 24.1143 6.31427 25.4421 8.1676C26.7699 10.0209 27.6739 12.1436 28.09 14.3852C28.6517 16.9633 28.8443 19.6081 28.662 22.2403C28.6217 23.6806 28.4267 25.1124 28.0805 26.511C26.9861 30.1111 24.6613 33.2121 21.5123 35.2718C18.5863 37.2377 15.3017 38.608 11.846 39.3042C10.6448 39.5806 9.42461 39.7427 8.2044 39.9429C7.74836 40.0203 7.27954 39.9572 6.86027 39.7617C4.82023 38.8085 2.76112 37.96 0.70202 37.0925C0.506487 37.0245 0.338403 36.8947 0.223173 36.7228C0.107943 36.5508 0.0518304 36.3459 0.0633162 36.1392C0.0633162 30.8866 0.0633162 25.6531 0.0633162 20.3814V20.3623ZM2.14149 36.9877C3.95273 37.7694 5.67819 38.5225 7.40364 39.2565C7.5848 39.3046 7.77538 39.3046 7.95655 39.2565C9.31975 39.0372 10.6925 38.8561 12.0271 38.5415C15.355 37.8398 18.5108 36.4854 21.3121 34.5568C23.4075 33.1159 25.127 31.1938 26.3264 28.9515C27.7689 26.1389 28.3018 22.9476 27.8517 19.8189C27.6526 17.7955 26.9452 15.8553 25.7952 14.1786C24.6452 12.502 23.0899 11.1433 21.274 10.2289C18.9133 9.0017 16.348 8.21662 13.7049 7.91237C13.0662 7.81704 12.4275 7.75984 11.722 7.68358C11.6884 7.90792 11.6661 8.13382 11.6553 8.36041C11.6553 8.98005 11.6553 9.60922 11.6553 10.267C11.6553 11.4395 11.5314 11.2203 12.6086 11.5635C14.2162 11.9589 15.7667 12.5579 17.2225 13.3461C19.3125 14.4659 20.905 16.3306 21.6839 18.5701C22.1476 20.0659 22.2521 21.6499 21.989 23.1936C21.7976 25.208 21.1277 27.1474 20.0349 28.8504C18.9421 30.5534 17.4582 31.9706 15.7068 32.9839C12.9149 34.6482 9.84261 35.7886 6.64101 36.349C5.19201 36.6159 3.71441 36.7684 2.14149 36.9877ZM5.86885 0.953358C5.60192 1.10588 5.43987 1.18215 5.28734 1.28701C3.9432 2.17357 2.61813 3.07919 1.25493 3.93715C1.07098 4.0426 0.920586 4.19788 0.821073 4.3851C0.72156 4.57232 0.676985 4.78385 0.692487 4.9953C0.692487 15.1637 0.692487 25.3321 0.692487 35.5005C0.692487 35.7198 0.692487 35.9391 0.692487 36.2155H1.30259C2.99942 36.1908 4.6905 36.0121 6.35502 35.6817C9.43218 35.1438 12.389 34.0624 15.0871 32.4882C17.3561 31.2254 19.1478 29.2528 20.1872 26.8733C20.2444 26.7112 20.2921 26.5492 20.3398 26.3776C20.2385 26.3844 20.1434 26.4286 20.0728 26.5015C18.7572 27.9767 17.0872 29.0922 15.2206 29.7427C12.534 30.7141 9.66803 31.0882 6.82213 30.839C5.86885 30.7532 5.86885 30.7722 5.86885 29.7903C5.86885 20.4481 5.86885 11.1122 5.86885 1.78272V0.953358ZM6.52661 0.676904V30.1431C8.02582 30.2878 9.53718 30.2462 11.0261 30.0191V29.2756C11.0261 22.2848 11.0261 15.2749 11.0261 8.24602C11.0261 8.05536 11.0261 7.8647 11.0261 7.68358C11.0261 7.20693 11.1787 7.083 11.6458 7.10207C11.9508 7.10207 12.2654 7.1688 12.5991 7.1974C15.2902 7.40893 17.9297 8.05271 20.416 9.10398C23.1369 10.2113 25.4111 12.1937 26.8793 14.7379C27.213 15.329 27.4799 15.9486 27.8326 16.6445C27.6357 15.1011 27.2746 13.5831 26.7554 12.1164C26.0955 10.1466 25.0045 8.34893 23.5619 6.85422C21.7562 5.09924 19.6255 3.71333 17.2892 2.77414C14.3957 1.59612 11.3314 0.891214 8.21394 0.686437C7.68963 0.638773 7.13672 0.676904 6.52661 0.676904ZM11.7316 29.9619C14.3197 29.6124 16.7627 28.5607 18.7954 26.9209C19.6524 26.2247 20.3354 25.3384 20.7904 24.3324C21.2454 23.3264 21.46 22.2282 21.417 21.1249C21.3892 19.9045 21.0827 18.7065 20.5209 17.6227C19.9591 16.5388 19.157 15.5977 18.1758 14.8714C16.6192 13.6949 14.8479 12.8336 12.9613 12.3356C12.5705 12.2212 12.1701 12.1259 11.6648 11.9924C11.6076 18.0077 11.7697 23.9372 11.7316 29.9619Z" fill="#BDBDBD"/>
<path d="M49.4818 19.9525V37.35C49.4818 37.5121 49.4818 37.6836 49.4818 37.8457C49.4818 38.2365 49.3197 38.4081 48.9575 38.4939C47.3369 38.8943 45.7068 39.2947 44.0957 39.7523C43.2744 39.9954 42.4003 39.9954 41.579 39.7523C40.0156 39.3042 38.4236 38.9324 36.8126 38.5321C36.1453 38.3605 36.1357 38.3605 36.1357 37.636V23.1269L36.2883 2.79327C36.2883 1.3824 36.1071 1.64932 37.4703 1.29661C39.0528 0.867625 40.6734 0.448178 42.294 0.0573296C42.6362 -0.0187844 42.9909 -0.0187844 43.3331 0.0573296C45.1443 0.495843 46.946 0.953421 48.7478 1.411C49.4341 1.58259 49.4341 1.59212 49.4341 2.30709V19.9525H49.4818ZM42.4846 36.2251C42.4846 35.9868 42.4846 35.8247 42.4846 35.6531C42.4846 33.0983 42.4846 30.553 42.4846 28.0268V4.48059C42.4846 3.75609 42.4846 3.75609 41.8173 3.5845L38.1948 2.56448C37.7754 2.45008 37.356 2.36429 36.8507 2.24989C36.8507 2.59308 36.7935 2.86 36.7935 3.12692C36.7935 9.83807 36.8189 16.5556 36.8698 23.2794C36.8698 27.779 36.8698 32.2785 36.8698 36.778C36.8698 37.0354 36.8698 37.3023 36.8698 37.6455L42.4846 36.2251ZM43.1615 36.2251L48.7954 37.6836V2.26896C48.6517 2.27692 48.5084 2.29283 48.3664 2.31662L44.0004 3.46057C43.0471 3.70843 43.1424 3.54637 43.1424 4.58545C43.1424 14.881 43.1424 25.1797 43.1424 35.4815L43.1615 36.2251ZM38.0423 1.77325V1.90671C39.5295 2.28803 41.0261 2.67887 42.5228 3.04112C42.7674 3.09807 43.0218 3.09807 43.2663 3.04112C44.5628 2.71701 45.8498 2.37382 47.1462 2.04017C47.2988 2.04017 47.4322 1.92578 47.6801 1.83045C47.4703 1.75418 47.3655 1.69699 47.2511 1.66839C46.498 1.47773 45.7354 1.33474 45.0013 1.08688C43.6038 0.576734 42.0709 0.576734 40.6734 1.08688C39.825 1.36334 38.9193 1.53493 38.0423 1.77325ZM38.2234 37.9982V38.1603C39.7201 38.5321 41.2168 38.9134 42.7134 39.2756C42.9011 39.2919 43.0901 39.2659 43.2663 39.1994L47.0795 38.2461L47.4894 38.1031C47.4132 38.0364 47.3941 37.9982 47.356 37.9887C45.9451 37.6169 44.4961 37.2356 43.1138 36.8829C42.8724 36.826 42.6212 36.826 42.3798 36.8829L39.7678 37.5597L38.2234 37.9982Z" fill="#BDBDBD"/>
</svg>
