<svg width="155" height="40" viewBox="0 0 155 40" fill="none" xmlns="http://www.w3.org/2000/svg">
<path d="M87.7727 0V12.9192C89.0027 12.499 90.1335 12.033 91.3024 11.7427C93.4337 11.1523 95.7011 11.2901 97.7451 12.1343C99.7892 12.9785 101.493 14.4808 102.587 16.4031C103.991 18.7023 104.725 21.3488 104.703 24.0431C104.8 26.7854 104.278 29.5144 103.175 32.0269C102.271 34.0828 100.853 35.8713 99.057 37.2201C97.2612 38.5689 95.1484 39.4326 92.9221 39.728C89.4611 40.3163 86.0461 39.8502 82.6234 39.2772C81.8594 39.1473 81.0954 38.9563 80.3314 38.8188C79.9952 38.7653 79.9188 38.6202 79.9188 38.2917C79.9494 28.2527 79.9672 18.2087 79.9723 8.15952C79.9611 7.37286 79.8689 6.58945 79.6972 5.82168C79.6048 5.16674 79.3023 4.55947 78.8353 4.09108C78.3683 3.62268 77.7619 3.31845 77.1073 3.22408C76.9311 3.22298 76.7579 3.17837 76.603 3.0942C76.4273 2.95668 76.1981 2.73512 76.2058 2.5594C76.2344 2.44897 76.2899 2.3473 76.3672 2.26336C76.4444 2.17942 76.5412 2.11579 76.6489 2.07808C79.2388 1.57384 81.8364 1.10016 84.434 0.61884L87.7727 0ZM87.9484 26.2663H87.8644C87.9408 29.8316 88.0121 33.4199 88.0783 37.0311C88.0783 37.4971 88.1547 37.8333 88.7201 37.902C90.5689 38.1083 92.1963 37.6652 93.3041 36.0913C94.0143 35.073 94.604 33.9757 95.0613 32.8214C96.3448 29.5133 96.4517 26.0371 96.1843 22.5533C96.0735 20.6455 95.5105 18.7914 94.5417 17.1442C93.0825 14.7299 91.2336 14.0041 88.4297 14.7605C88.3507 14.7697 88.2744 14.795 88.2054 14.8346C88.1364 14.8742 88.0762 14.9274 88.0283 14.9909C87.9805 15.0545 87.946 15.1271 87.927 15.2044C87.908 15.2816 87.9049 15.3619 87.9179 15.4404C87.9433 19.0465 87.9535 22.6551 87.9484 26.2663Z" fill="#BDBDBD"/>
<path d="M0.271973 2.13172V0.76416H31.1987C31.2445 1.67332 31.3056 2.58248 31.3286 3.49164C31.382 5.78364 31.3897 8.12912 31.4737 10.4517C31.4737 11.1622 31.3362 11.5595 30.5951 11.6359C30.3545 11.6782 30.1171 11.7369 29.8846 11.8116C29.4873 10.849 29.1206 9.91688 28.731 9.00772C28.1445 7.55574 27.2445 6.25131 26.0952 5.18772C24.7992 3.95837 23.0758 3.28159 21.2896 3.30064C19.2497 3.35412 17.2175 3.30064 15.1776 3.30064H14.4136C14.3678 4.01116 14.2914 4.63764 14.2837 5.26412C14.192 9.54761 14.1106 13.8362 14.0392 18.1299C14.0392 19.1154 14.0392 19.146 15.063 19.1002C16.4611 19.0467 17.8592 18.9779 19.2497 18.8328C19.7118 18.7912 20.1564 18.6363 20.5442 18.3818C20.932 18.1272 21.2511 17.7809 21.473 17.3735C22.0205 16.4355 22.4467 15.4317 22.7412 14.3863C22.9169 13.691 23.1767 13.5306 23.7802 13.6223C23.933 13.6223 24.0858 13.6223 24.2921 13.6223V26.5339L22.978 26.4728C22.8787 26.1366 22.8023 25.7775 22.6724 25.449C22.3964 24.6229 22.0593 23.8185 21.664 23.0424C21.3702 22.486 20.9306 22.02 20.3922 21.6944C19.8539 21.3687 19.2371 21.1955 18.608 21.1935C17.1487 21.1935 15.6895 21.0789 14.1691 21.0102C14.1691 21.3692 14.1004 21.6214 14.108 21.8735C14.215 25.2885 14.2914 28.7036 14.4671 32.1111C14.5655 33.1749 14.7781 34.2251 15.1012 35.2435C15.2412 35.8366 15.5579 36.3732 16.0094 36.7825C16.4609 37.1918 17.0261 37.4543 17.63 37.5355C18.1878 37.6348 18.7455 37.7647 19.2956 37.8793C20.2429 38.0703 20.3117 38.1772 20.0596 39.201H0.271973V37.9709L2.37297 37.5507C2.94713 37.4758 3.48725 37.236 3.92793 36.8604C4.36862 36.4848 4.69097 35.9895 4.85597 35.4345C5.2786 34.2426 5.53567 32.9984 5.61997 31.7367C5.75749 25.4363 5.8288 19.1333 5.83389 12.8277C5.83389 10.6732 5.57413 8.51112 5.40605 6.35664C5.34425 5.94112 5.23663 5.53372 5.08517 5.14188C4.91056 4.35222 4.47772 3.6433 3.85507 3.12719C3.23243 2.61109 2.45551 2.31726 1.64717 2.29216C1.21169 2.29216 0.783852 2.20048 0.271973 2.13172Z" fill="#BDBDBD"/>
<path d="M54.6919 24.8758C54.6308 28.8333 53.9279 32.1643 51.6359 35.0064C50.5217 36.4767 49.0926 37.6789 47.4533 38.525C45.814 39.3711 44.0062 39.8395 42.1623 39.896C40.147 40.0769 38.1158 39.8668 36.1802 39.2772C34.5453 38.7475 33.0521 37.8533 31.8133 36.6622C30.5745 35.4711 29.6225 34.014 29.0292 32.4012C27.4122 28.4265 27.2846 24.0016 28.6701 19.9403C30.603 14.1263 35.5996 10.864 41.9713 11.0474C45.4857 11.1467 48.5875 12.1781 51.0323 14.8063C52.9167 16.9022 54.1115 19.5266 54.4551 22.324C54.6002 23.3248 54.6384 24.318 54.6919 24.8758ZM46.3719 25.9759C46.1886 23.9131 46.0663 21.835 45.7913 19.7875C45.6089 17.8126 44.8459 15.9358 43.5986 14.3937C41.8032 12.3156 39.2286 12.5143 37.9527 14.9514C37.3347 16.224 36.8877 17.5726 36.6233 18.9624C36.0427 21.6517 36.1802 24.4479 36.1802 27.1754C36.1988 29.1473 36.4815 31.1078 37.0206 33.0047C37.3481 34.5533 38.0931 35.9827 39.1751 37.138C39.7585 37.7282 40.5514 38.0642 41.3812 38.0728C42.2111 38.0814 43.0108 37.7619 43.6063 37.1838C44.5001 36.3031 45.1276 35.1883 45.4169 33.9674C46.0355 31.3481 46.3558 28.6672 46.3719 25.9759Z" fill="#BDBDBD"/>
<path d="M131.68 24.1041H130.839H116.996C116.536 24.0861 116.076 24.1066 115.621 24.1652C115.516 24.2031 115.422 24.2662 115.348 24.3487C115.273 24.4313 115.22 24.531 115.193 24.6389C115.226 26.5195 115.533 28.3852 116.102 30.1779C116.61 31.4623 117.395 32.6189 118.401 33.5655C119.407 34.5122 120.609 35.2257 121.922 35.6552C123.235 36.0848 124.626 36.2199 125.997 36.051C127.368 35.8821 128.685 35.4133 129.854 34.6779C129.97 34.576 130.109 34.5027 130.259 34.4639C130.503 34.4639 130.923 34.4105 130.969 34.5098C131.026 34.6292 131.055 34.7597 131.055 34.8918C131.055 35.0239 131.026 35.1544 130.969 35.2738C130.303 36.0235 129.574 36.7161 128.792 37.3442C122.107 42.379 110.15 40.3315 107.744 29.5591C106.781 25.2577 107.117 20.9488 109.554 17.0982C110.688 15.1976 112.308 13.6335 114.247 12.5673C116.186 11.501 118.374 10.9711 120.587 11.0321C126.087 10.9786 129.869 13.9735 131.168 19.4896C131.428 20.5897 131.542 21.7281 131.695 22.8512C131.715 23.2687 131.71 23.6871 131.68 24.1041ZM123.581 21.8121C123.406 20.1848 123.337 18.6339 123.054 17.1212C122.854 16.075 122.491 15.0669 121.977 14.1339C121.827 13.824 121.604 13.5551 121.327 13.3501C121.051 13.1451 120.729 13.0102 120.389 12.9569C120.048 12.9036 119.7 12.9335 119.374 13.044C119.048 13.1545 118.754 13.3423 118.516 13.5915C117.938 14.0674 117.476 14.6682 117.164 15.3487C116.632 16.7478 116.18 18.1763 115.812 19.6271C115.648 20.4275 115.525 21.2359 115.445 22.049L123.581 21.8121Z" fill="#BDBDBD"/>
<path d="M133.682 34.2422C133.682 33.1726 133.682 32.103 133.682 31.0334C133.682 30.5445 133.812 30.3076 134.27 30.2007C134.728 30.0937 134.835 30.4681 135.034 30.7737C135.607 31.8967 136.111 33.0657 136.776 34.1429C137.243 34.9641 137.874 35.6803 138.629 36.2468C139.385 36.8133 140.25 37.2181 141.169 37.4357C143.721 38.0011 145.707 37.1225 146.754 34.9375C147.186 34.0883 147.286 33.1081 147.033 32.1893C146.78 31.2705 146.192 30.4795 145.386 29.9715C143.907 29.1409 142.376 28.406 140.802 27.7711C139.1 27.1703 137.54 26.2264 136.218 24.9978C135.467 24.227 134.902 23.2951 134.566 22.2731C134.23 21.251 134.131 20.1657 134.278 19.0998C134.682 15.1499 137.227 12.4453 141.497 11.391C143.537 10.9751 145.635 10.9208 147.693 11.2306C149.286 11.479 150.857 11.852 152.392 12.346C152.505 12.4017 152.603 12.4846 152.676 12.5873C152.749 12.6899 152.796 12.8091 152.812 12.9343C152.881 14.9436 152.881 16.9606 152.965 18.9699C152.965 19.5658 152.629 19.6575 152.201 19.7339C151.773 19.8103 151.758 19.4665 151.62 19.1991C151.011 17.8267 150.32 16.4923 149.55 15.2034C149.043 14.4273 148.338 13.8007 147.508 13.3883C146.678 12.976 145.753 12.7928 144.828 12.8579C144.067 12.8434 143.321 13.0739 142.701 13.5155C142.081 13.957 141.618 14.5862 141.383 15.3103C140.749 17.1592 141.1 18.8935 142.513 19.9402C143.623 20.7148 144.794 21.3995 146.013 21.9877C147.311 22.66 148.656 23.233 149.985 23.8365C156.625 26.8925 154.852 35.4341 150.551 38.0164C148.554 39.2106 146.283 39.871 143.957 39.934C140.838 40.0435 137.722 39.6356 134.736 38.7269C134.589 38.7056 134.447 38.655 134.32 38.5781C134.192 38.5013 134.082 38.3997 133.994 38.2794C133.906 38.1591 133.844 38.0224 133.81 37.8775C133.776 37.7327 133.771 37.5824 133.796 37.4357C133.796 36.3661 133.796 35.2965 133.796 34.2193L133.682 34.2422Z" fill="#BDBDBD"/>
<path d="M66.6945 11.1313V17.0599L66.8243 17.1057C67.0459 16.739 67.2751 16.3799 67.4814 16.0132C68.1562 14.7562 69.0636 13.6388 70.1554 12.7204C71.0798 11.8886 72.2146 11.3263 73.4364 11.0946C74.6582 10.863 75.9201 10.9708 77.0849 11.4063C77.5662 11.582 77.7113 11.7959 77.505 12.3307C76.741 14.3553 75.977 16.4105 75.213 18.4427C75.1535 18.5871 75.0846 18.7275 75.0068 18.8629C73.9598 18.4824 72.8938 18.156 71.8133 17.885C70.2824 17.5264 68.6724 17.767 67.3133 18.5573C67.0689 18.6746 66.8654 18.8626 66.7292 19.0969C66.593 19.3312 66.5303 19.601 66.5493 19.8714C66.6181 24.3561 66.641 28.8408 66.7097 33.3255C66.7355 34.0959 66.8275 34.8628 66.9848 35.6175C67.0418 36.1686 67.2874 36.6832 67.6799 37.0744C68.0724 37.4655 68.5879 37.7092 69.1393 37.7643C69.5747 37.8178 70.0102 37.8865 70.4457 37.9171C71.5306 37.9935 71.5306 37.9935 71.3243 39.1853H55.0664C54.9289 38.0852 54.9212 38.0393 55.9373 37.8713C57.7404 37.5733 58.5273 36.8246 58.6877 34.6395C59.0506 29.1789 59.0889 23.7016 58.8023 18.2365C58.7757 17.8436 58.7221 17.453 58.6419 17.0675C58.2905 15.3409 57.7327 14.8137 55.9679 14.5081C55.814 14.5062 55.6626 14.4697 55.5248 14.4012C55.3338 14.2637 55.0282 14.0497 55.0435 13.8969C55.0773 13.7763 55.1403 13.6657 55.2269 13.5751C55.3135 13.4845 55.421 13.4166 55.5401 13.3774C56.9 13.0565 58.2675 12.7891 59.6351 12.5065L66.3125 11.1542C66.4391 11.1374 66.5667 11.1297 66.6945 11.1313Z" fill="#BDBDBD"/>
</svg>
