<svg width="98" height="40" viewBox="0 0 98 40" fill="none" xmlns="http://www.w3.org/2000/svg">
<path d="M49.5367 -0.000116138C52.1722 -0.000116138 55.5113 0.120991 58.8447 0.420876C66.6301 1.11868 74.2772 2.50277 81.6244 5.27093C85.2571 6.55808 88.675 8.38562 91.7628 10.6919C93.1335 11.7339 94.3457 12.9694 95.3614 14.3597C97.9392 17.9699 97.9623 21.9203 95.4133 25.5477C93.853 27.6545 91.8934 29.4338 89.6463 30.7842C85.7273 33.1886 81.4892 35.0291 77.0569 36.2513C72.6276 37.5391 68.1038 38.4762 63.5275 39.0541C57.8094 39.7976 52.043 40.1041 46.2784 39.971C42.4643 39.8964 38.6568 39.6231 34.8712 39.1521C28.8795 38.4583 22.979 37.1263 17.2703 35.1787C13.2426 33.8576 9.44775 31.9115 6.02461 29.4116C4.55129 28.334 3.25205 27.0367 2.17224 25.5651C-0.382542 21.9434 -0.365241 17.9353 2.22415 14.3367C3.84884 12.2017 5.87191 10.4019 8.18147 9.03679C11.6367 6.9441 15.3438 5.29887 19.2138 4.1406C23.1435 2.91443 27.1587 1.98146 31.2265 1.34936C37.2828 0.400869 43.4067 -0.0504634 49.5367 -0.000116138ZM30.8343 21.3378H30.7478C30.7478 17.6758 30.7478 14.0137 30.7478 10.3805C30.7478 10.0057 30.6555 9.90184 30.2807 9.90761C27.9354 9.90761 25.5921 9.90761 23.2507 9.90761C23.174 9.89629 23.0958 9.90056 23.0208 9.92014C22.9458 9.93973 22.8755 9.97425 22.8141 10.0216C22.7527 10.069 22.7015 10.1283 22.6636 10.1959C22.6256 10.2635 22.6017 10.338 22.5932 10.4151C21.3668 15.2825 20.1346 20.1652 18.8966 25.0633C18.4987 26.6492 18.1007 28.2352 17.697 29.8615C19.4271 29.8615 21.1169 29.8615 22.8008 29.8615C23.1584 29.8615 23.2507 29.7288 23.3256 29.4289C24.2561 25.7265 25.1903 22.0279 26.1284 18.3332C26.1811 17.9312 26.302 17.5411 26.486 17.1798C26.486 21.2917 26.486 25.3344 26.486 29.3828C26.486 29.7288 26.5609 29.8499 26.93 29.8384C28.0142 29.8384 29.0984 29.8384 30.1769 29.8384C30.352 29.8644 30.5308 29.8286 30.6824 29.737C30.8339 29.6454 30.9489 29.5038 31.0073 29.3367C32.8527 25.4785 34.727 21.6377 36.5955 17.8027C36.6356 17.642 36.7344 17.5021 36.8724 17.4105C36.8724 17.5777 36.8378 17.6873 36.8147 17.7969C35.9035 21.6954 34.9942 25.567 34.0869 29.4116C34.0062 29.7519 34.0408 29.8672 34.4387 29.8615C35.8747 29.8615 37.3222 29.8269 38.7409 29.8615C39.1907 29.8615 39.3176 29.7058 39.4156 29.2848C40.569 24.6404 41.7224 19.9999 42.8758 15.3632C43.3314 13.5293 43.7928 11.7012 44.2657 9.82111H43.7466C41.313 9.82111 38.8735 9.82111 36.4341 9.82111C36.2887 9.80338 36.1417 9.83846 36.02 9.91996C35.8983 10.0015 35.8099 10.124 35.7709 10.2652C34.8827 12.2663 33.9773 14.2675 33.0719 16.2629C32.3299 17.9661 31.584 19.6577 30.8343 21.3378ZM72.1838 20.3113C72.1369 20.2776 72.0985 20.2335 72.0715 20.1825C72.0445 20.1315 72.0296 20.0749 72.0281 20.0172C71.2591 16.7877 70.4902 13.5562 69.7213 10.3228C69.6405 9.95375 69.4963 9.85571 69.1446 9.86147C67.5529 9.88454 65.9592 9.88454 64.3637 9.86147C63.96 9.86147 63.787 9.98258 63.7063 10.3747C62.6451 14.6616 61.5744 18.9445 60.494 23.2236L58.8389 29.873H63.885C64.1734 29.873 64.1503 29.6596 64.1965 29.4809C64.8962 26.7242 65.5959 23.9695 66.2957 21.2167C66.4629 20.542 66.6417 19.873 66.8724 19.0714C66.9416 19.2675 66.9646 19.3251 66.9819 19.3828C67.8354 22.7565 68.712 26.1245 69.5425 29.4982C69.6117 29.7923 69.7213 29.8788 70.0154 29.873C71.5955 29.873 73.1699 29.873 74.7443 29.873C75.0903 29.873 75.2057 29.7577 75.2807 29.4462C75.7017 27.6873 76.1457 25.9284 76.5898 24.1752C77.7432 19.5616 78.8966 14.948 80.05 10.3344C80.1307 10.0114 80.1423 9.86724 79.7213 9.87878C78.2391 9.87878 76.757 9.87878 75.2749 9.87878C74.9635 9.87878 74.8539 9.97682 74.7732 10.2882C73.9081 13.6043 73.0315 16.9376 72.1607 20.3055L72.1838 20.3113ZM47.0742 25.9514C48.8389 25.9514 50.5344 25.9514 52.2645 25.9514C52.7028 25.9514 52.8758 25.8476 52.9854 25.4036C53.8331 22.0472 54.7155 18.7023 55.5632 15.3459C55.6497 15.0114 55.7939 14.9364 56.1111 14.9422C57.5759 14.9422 59.0465 14.9422 60.5113 14.9422C60.8285 14.9422 60.9785 14.8788 61.0534 14.5385C61.3879 13.0968 61.7512 11.655 62.1146 10.2363C62.1895 9.94798 62.1146 9.84994 61.8205 9.85571C56.6301 9.85571 51.4398 9.85571 46.2495 9.85571C46.1969 9.84582 46.1427 9.84716 46.0906 9.85964C46.0385 9.87211 45.9897 9.89544 45.9472 9.9281C45.9048 9.96076 45.8697 10.002 45.8442 10.0492C45.8188 10.0963 45.8036 10.1483 45.7997 10.2017C45.4652 11.6262 45.125 13.0449 44.7443 14.4578C44.6348 14.873 44.7443 14.9537 45.1307 14.948C46.7051 14.948 48.2795 14.948 49.9058 14.948C48.96 18.6158 48.0258 22.2548 47.0742 25.9514ZM52.3856 27.399H46.9358C46.8971 27.3924 46.8575 27.3937 46.8193 27.4026C46.7811 27.4116 46.7451 27.4281 46.7134 27.4513C46.6817 27.4744 46.6549 27.5036 46.6347 27.5372C46.6145 27.5708 46.6011 27.6081 46.5955 27.6469C46.4052 28.3794 46.2149 29.1175 46.0188 29.8442C45.9554 30.0749 46.0188 30.1441 46.2495 30.1441C47.9527 30.1441 49.654 30.1441 51.3533 30.1441C51.3995 30.1514 51.4467 30.149 51.4919 30.1369C51.5371 30.1249 51.5793 30.1035 51.6157 30.0741C51.6521 30.0448 51.6819 30.0081 51.7033 29.9665C51.7247 29.9249 51.7371 29.8793 51.7397 29.8326C51.9416 29.008 52.1722 28.2121 52.3856 27.3759V27.399Z" fill="#E0E0E0"/>
</svg>
