<svg width="100" height="109" viewBox="0 0 100 109" fill="none" xmlns="http://www.w3.org/2000/svg">
<rect y="8.86206" width="100" height="100" rx="10" fill="#651FFF"/>
<path d="M53.3123 56.03C58.1873 58.5144 61.2693 60.6472 62.5583 62.4285C63.8708 64.1863 64.5271 66.155 64.5271 68.3347C64.5271 71.3816 63.1794 73.866 60.4841 75.7878C57.8123 77.6863 54.2615 78.6355 49.8318 78.6355C47.4412 78.6355 45.2029 78.3894 43.1169 77.8972C41.031 77.405 39.3318 76.8308 38.0193 76.1746L37.6677 67.7371L41.4998 67.0339L43.5388 73.6082C44.4529 73.8894 45.4607 74.1003 46.5623 74.241C47.6638 74.3582 48.7771 74.4167 49.9021 74.4167C51.1677 74.4167 52.4216 74.3464 53.6638 74.2058C54.9294 74.0417 56.2068 73.7839 57.4958 73.4324C57.7302 72.9402 57.906 72.3894 58.0232 71.78C58.1404 71.1472 58.199 70.5378 58.199 69.9519C58.199 68.2878 57.449 66.7996 55.949 65.4871C54.449 64.1511 51.5427 62.3464 47.2302 60.073C43.3396 58.0339 40.7263 56.2058 39.3904 54.5886C38.0544 52.9714 37.3865 51.1199 37.3865 49.0339C37.3865 46.1042 38.6169 43.6902 41.0779 41.7917C43.5388 39.8933 47.031 38.9441 51.5544 38.9441C53.6638 38.9441 55.7146 39.1667 57.7068 39.6121C59.699 40.0339 61.4099 40.6082 62.8396 41.3347L63.156 49.8074L59.324 50.5105L57.2498 43.866C56.3123 43.6082 55.3162 43.4324 54.2615 43.3386C53.2068 43.2214 52.2341 43.1628 51.3435 43.1628C50.1013 43.1628 48.8943 43.2566 47.7224 43.4441C46.5505 43.6082 45.4724 43.8425 44.488 44.1472C44.2771 44.5222 44.0896 45.0144 43.9255 45.6238C43.7849 46.2097 43.7146 46.8191 43.7146 47.4519C43.7146 48.7175 44.2419 49.9128 45.2966 51.0378C46.3748 52.1394 49.0466 53.8035 53.3123 56.03Z" fill="#E4E4E4"/>
</svg>
